<?xml version="1.0" encoding="utf-8"?>
<!-- Generator: Adobe Illustrator 24.2.3, SVG Export Plug-In . SVG Version: 6.00 Build 0)  -->
<svg version="1.1" id="Layer_1" xmlns="http://www.w3.org/2000/svg" xmlns:xlink="http://www.w3.org/1999/xlink" x="0px" y="0px"
	 viewBox="0 0 595.28 231.5" style="enable-background:new 0 0 595.28 231.5;" xml:space="preserve">
<style type="text/css">
	.st0{fill:#FFFFFF;}
	.st1{clip-path:url(#XMLID_2_);fill:#FFFFFF;}
	.st2{clip-path:url(#XMLID_3_);fill:#FFFFFF;}
	.st3{clip-path:url(#XMLID_4_);fill:#FFFFFF;}
</style>
<g id="XMLID_2070_">
	<g id="XMLID_27567_">
		<path id="XMLID_27622_" class="st0" d="M228.71,219.91V182.2h8.3v16.49l15.3-16.49h10.02l-15.36,16l16.06,21.71h-9.97
			l-11.69-16.06l-4.36,4.52v11.53H228.71z"/>
		<path id="XMLID_27617_" class="st0" d="M299.31,214.87c-3.83,3.79-8.61,5.68-14.36,5.68s-10.51-1.89-14.31-5.66
			c-3.79-3.77-5.68-8.39-5.68-13.85c0-5.42,1.91-10.03,5.74-13.82c3.82-3.79,8.61-5.68,14.36-5.68c5.75,0,10.51,1.89,14.3,5.66
			c3.79,3.77,5.69,8.39,5.69,13.85C305.05,206.48,303.14,211.09,299.31,214.87z M276.87,209.46c2.15,2.3,4.88,3.45,8.19,3.45
			c3.3,0,6.02-1.14,8.14-3.42s3.18-5.09,3.18-8.43c0-3.3-1.08-6.11-3.23-8.41c-2.16-2.3-4.89-3.45-8.19-3.45
			c-3.31,0-6.02,1.14-8.14,3.42c-2.12,2.28-3.18,5.09-3.18,8.43C273.64,204.36,274.72,207.16,276.87,209.46z"/>
		<path id="XMLID_27612_" class="st0" d="M314.37,219.91V182.2h8.3v37.72H314.37z"/>
		<path id="XMLID_27610_" class="st0" d="M333.66,219.91V182.2h7.65l17.67,23.22V182.2h8.19v37.72h-7.06l-18.27-23.98v23.98H333.66z
			"/>
	</g>
	<g id="XMLID_4241_">
		<g id="XMLID_18466_">
			<g id="XMLID_27563_">
				<defs>
					<path id="XMLID_27565_" d="M120.01,15.93C103.19,18.5,90.52,26.29,83.34,42.3c-9.95,22.18-0.21,41.78,17.21,50.1
						c8.9,4.25,18.45,6.03,28.23,6.12c20.12,0.18,40.23,0.07,60.35,0.05c5.36-0.01,9.61,2.24,12.99,6.22
						c3.71,4.36,3.24,10.23-1.63,13.19c-2.45,1.49-5.85,2-8.8,1.97c-5.64-0.06-11.27-0.92-16.92-1.28
						c-8.76-0.54-17.55-0.82-26.31-1.42c-14.98-1.02-29.96-2.1-44.92-3.39c-3.17-0.27-4.62,1.46-6.15,3.48
						c-4.67,6.17-9.27,12.4-13.96,18.55c-4.17,5.47-8.42,10.88-13.08,16.88h4.47c40.85,0,81.7,0.04,122.54-0.06
						c4.47-0.01,9.04-0.43,13.38-1.44c11.45-2.67,21.1-8.04,26.42-19.29c3.42-7.24,3.56-14.92,3.57-22.7
						c0.02-12.74-5.99-21.76-16.8-27.82c-11.51-6.45-24.24-7.99-37.11-8.41c-5.05-0.16-10.11-0.13-15.16-0.09
						c-5.71,0.04-11.42,0.09-17.11-0.16c-8.04-0.35-16.08-1.4-24.01-2.79c-3.1-0.55-6.28-2.41-8.73-4.5
						c-4.06-3.44-2.77-8.86,2.29-10.59c9.48-3.25,19.19-1.91,28.84-1.14c11.97,0.95,23.91,2.12,35.88,3.15
						c7.59,0.65,15.18,1.32,22.78,1.74c1.31,0.07,3.12-0.71,3.96-1.72c4.16-4.96,8.08-10.11,12.05-15.22
						c4.08-5.25,8.13-10.54,12.36-16.03c-0.81-0.3-1.22-0.55-1.64-0.59c-10.69-0.96-21.39-1.9-32.08-2.83
						c-18.07-1.56-36.14-3.08-54.21-4.66c-8.08-0.71-16.07-2.28-24.2-2.28C125.26,15.36,122.64,15.52,120.01,15.93"/>
				</defs>
				<use xlink:href="#XMLID_27565_"  style="overflow:visible;fill:#FFFFFF;"/>
				<clipPath id="XMLID_2_">
					<use xlink:href="#XMLID_27565_"  style="overflow:visible;"/>
				</clipPath>
				<rect id="XMLID_27566_" x="70.36" y="15.36" class="st1" width="170.4" height="137.48"/>
			</g>
			<g id="XMLID_27550_">
				<defs>
					<path id="XMLID_27560_" d="M295.6,31.9c-5.06,4.75-9.05,10.73-13.15,16.42c-11.78,16.38-23.39,32.9-35,49.41
						c-0.57,0.8-0.77,2.11-0.64,3.11c0.28,2.27,1.08,4.49,1.29,6.76c1.1,11.69-0.25,22.91-7.88,32.4
						c-3.68,4.59-8.03,8.64-11.96,12.82c5.83,0,12.27-0.15,18.69,0.07c2.54,0.09,4.01-0.85,5.37-2.81
						c4.39-6.36,8.89-12.65,13.37-18.94c13.8-19.36,27.63-38.7,41.43-58.05c2.47-3.46,3.64-3.36,5.77,0.43
						c7.34,13.06,14.74,26.08,22.06,39.14c1.66,2.96,3.13,6.02,5.03,9.69c-2.2,0-3.55,0-4.9,0c-13.66-0.04-27.31-0.03-40.97-0.15
						c-2.08-0.02-3.34,0.61-4.51,2.38c-4.19,6.36-8.59,12.58-12.87,18.88c-1.98,2.92-3.88,5.9-6.03,9.2h121.54
						c-4.18-8.04-8.1-15.61-12.05-23.15c-3.94-7.54-7.92-15.06-11.89-22.59c-3.98-7.54-7.96-15.08-11.95-22.62
						c-7.99-15.07-15.8-30.24-24.05-45.15c-4.9-8.85-12-14.98-20.3-14.98C306.91,24.17,301.36,26.49,295.6,31.9"/>
				</defs>
				<use xlink:href="#XMLID_27560_"  style="overflow:visible;fill:#FFFFFF;"/>
				<clipPath id="XMLID_3_">
					<use xlink:href="#XMLID_27560_"  style="overflow:visible;"/>
				</clipPath>
				<rect id="XMLID_27562_" x="228.26" y="24.17" class="st2" width="164" height="128.81"/>
			</g>
			<g id="XMLID_27526_">
				<defs>
					<path id="XMLID_27527_" d="M396.67,26.33c-8.99,2.44-13.15,9.42-15.4,17.43c-4,14.22-7.31,28.64-10.82,43
						c-0.3,1.24-0.38,2.87,0.17,3.94c4.88,9.39,9.92,18.69,15.21,28.56c0.46-1.03,0.69-1.42,0.82-1.83
						c4.27-13.71,8.51-27.42,12.84-41.11c0.26-0.83,1.15-1.47,1.75-2.2c0.64,0.69,1.54,1.27,1.88,2.08
						c1.92,4.67,3.83,9.34,5.52,14.1c4.34,12.24,8.49,24.55,12.87,36.78c2.67,7.44,4.91,15.15,10.83,20.91
						c5.74,5.59,11.2,7.35,17.35,2.54c1.97-1.54,4-3.37,5.16-5.51c4.76-8.76,9.31-17.64,13.72-26.58
						c5.87-11.91,11.51-23.94,17.31-35.89c0.39-0.8,1.24-1.38,1.88-2.06c0.58,0.85,1.49,1.62,1.67,2.55
						c0.95,4.71,1.81,9.44,2.53,14.19c2.68,17.76,5.29,35.54,7.96,53.3c0.29,1.92,1.19,3.09,3.44,2.99
						c3.12-0.15,6.25-0.04,9.37-0.04c4.22,0,8.44,0,12.74,0c0-1.48,0.12-2.42-0.02-3.32c-2.07-13.32-4.18-26.64-6.27-39.95
						c-2.52-16.03-4.97-32.07-7.58-48.09c-1.19-7.32-2.19-14.62-6.4-21.18c-6.3-9.83-19.21-8.09-24.62-0.2
						c-2.61,3.81-4.34,8.22-6.51,12.35c-3.74,7.12-7.64,14.16-11.22,21.36c-5.41,10.9-10.58,21.91-15.95,32.84
						c-0.43,0.89-1.54,1.44-2.34,2.16c-0.6-0.79-1.41-1.48-1.77-2.37c-3.6-8.85-7.14-17.72-10.66-26.6
						c-4.4-11.1-8.53-22.31-13.25-33.27c-2.39-5.55-5.45-10.93-8.91-15.88c-2.39-3.42-5.7-5.46-9.74-5.46
						C399.11,25.83,397.91,25.99,396.67,26.33"/>
				</defs>
				<use xlink:href="#XMLID_27527_"  style="overflow:visible;fill:#FFFFFF;"/>
				<clipPath id="XMLID_4_">
					<use xlink:href="#XMLID_27527_"  style="overflow:visible;"/>
				</clipPath>
				<rect id="XMLID_27528_" x="370.07" y="25.83" class="st3" width="155.53" height="129.5"/>
			</g>
		</g>
	</g>
</g>
</svg>
