<svg id="svg" xmlns="http://www.w3.org/2000/svg" xmlns:xlink="http://www.w3.org/1999/xlink" width="400" height="357.28155339805824" viewBox="0, 0, 400,357.28155339805824" version="1.1"><g id="svgg"><path id="path0" d="M100.598 32.045 C 100.038 32.166,84.828 46.601,82.752 48.982 C 81.470 50.453,74.640 57.194,74.431 57.196 C 74.289 57.197,73.897 57.685,73.558 58.279 C 73.220 58.874,72.483 59.624,71.921 59.946 C 71.359 60.269,70.637 60.990,70.317 61.548 C 69.997 62.106,69.326 62.718,68.826 62.908 C 68.327 63.098,67.918 63.432,67.918 63.651 C 67.918 63.870,66.752 65.173,65.326 66.546 C 63.901 67.920,62.574 69.207,62.377 69.408 C 62.181 69.609,60.894 70.895,59.517 72.268 C 58.141 73.640,56.910 74.871,56.782 75.004 C 56.654 75.137,52.756 79.087,48.121 83.781 C 43.485 88.476,39.769 92.441,39.863 92.593 C 39.957 92.745,40.960 93.480,42.090 94.226 C 44.436 95.774,44.917 96.301,45.228 97.667 C 45.500 98.858,47.150 100.304,48.602 100.623 C 49.714 100.867,51.117 102.303,51.117 103.197 C 51.117 103.915,53.280 106.524,53.876 106.524 C 55.034 106.524,56.369 107.651,57.323 109.436 C 58.575 111.779,59.275 112.600,60.020 112.602 C 61.295 112.605,62.786 113.950,63.434 115.683 C 64.295 117.983,64.536 118.248,66.170 118.688 C 67.732 119.109,69.189 120.487,69.527 121.865 C 69.920 123.466,70.731 124.357,72.140 124.736 C 73.797 125.182,74.974 126.368,75.585 128.206 C 75.965 129.351,76.369 129.739,78.011 130.538 C 79.973 131.493,81.501 132.978,81.501 133.930 C 81.501 134.573,82.557 136.193,82.976 136.193 C 84.187 136.193,86.620 137.851,87.123 139.018 C 87.428 139.725,87.828 140.626,88.012 141.019 C 88.196 141.412,89.153 142.129,90.139 142.613 C 92.085 143.568,93.655 145.164,93.655 146.187 C 93.655 146.983,95.701 148.586,97.499 149.199 C 98.438 149.519,99.052 150.051,99.553 150.979 C 100.500 152.731,101.669 153.032,102.797 151.815 C 103.265 151.311,104.525 150.316,105.599 149.603 C 107.244 148.511,108.893 147.046,110.634 145.129 C 110.831 144.913,112.038 143.724,113.315 142.488 C 119.516 136.490,119.900 135.888,119.576 132.670 C 119.290 129.838,118.916 129.242,117.105 128.742 C 115.202 128.217,114.458 127.429,113.833 125.280 C 113.303 123.455,112.392 122.609,110.957 122.609 C 105.855 122.609,105.301 110.315,110.271 107.402 L 111.785 106.514 205.937 106.618 C 308.976 106.731,302.081 106.572,304.181 108.879 C 305.712 110.562,307.818 111.543,310.777 111.953 C 316.312 112.720,316.799 113.060,318.841 117.570 C 318.966 117.845,319.825 118.263,320.750 118.497 C 323.079 119.089,323.765 119.845,324.622 122.763 C 325.215 124.784,325.586 125.434,326.473 126.005 C 329.692 128.079,330.688 131.200,330.920 139.932 C 331.121 147.538,331.299 148.100,333.930 149.447 C 334.808 149.897,335.449 150.592,335.873 151.552 C 336.381 152.702,336.829 153.111,338.137 153.615 C 342.282 155.216,358.534 154.153,358.534 152.282 C 358.534 152.136,359.386 151.144,360.427 150.078 C 362.006 148.460,362.428 147.741,362.970 145.736 C 363.328 144.415,363.763 143.246,363.937 143.138 C 364.505 142.787,364.271 141.191,363.497 140.145 C 362.872 139.300,362.679 138.291,362.384 134.351 C 361.977 128.916,360.456 123.529,359.218 123.136 C 358.155 122.798,357.221 121.167,356.768 118.856 C 355.461 112.193,354.827 110.456,353.701 110.456 C 352.796 110.456,351.385 108.928,350.960 107.488 C 350.716 106.663,350.307 105.771,350.049 105.507 C 349.792 105.242,349.345 104.570,349.057 104.013 C 348.769 103.456,348.204 102.895,347.801 102.767 C 347.398 102.639,346.694 101.944,346.236 101.223 C 343.994 97.692,339.061 93.050,335.798 91.401 C 334.630 90.810,333.819 90.117,333.545 89.475 C 333.002 88.203,330.798 86.506,329.690 86.506 C 328.344 86.506,326.488 85.582,325.155 84.250 C 322.659 81.754,320.230 80.786,315.460 80.389 C 310.529 79.979,305.099 78.669,302.842 77.347 C 301.986 76.845,300.293 76.283,299.079 76.097 C 297.865 75.911,295.666 75.579,294.191 75.359 C 288.511 74.511,120.459 74.570,117.093 75.421 C 113.739 76.269,112.731 76.305,111.528 75.619 C 111.037 75.339,110.105 74.865,109.459 74.565 C 104.878 72.440,106.021 65.206,111.525 61.483 C 111.670 61.385,111.900 60.949,112.036 60.513 C 112.330 59.571,115.182 56.971,116.753 56.214 C 119.820 54.736,120.544 46.484,117.734 45.033 C 115.266 43.757,114.195 42.777,113.329 41.001 C 112.550 39.405,112.130 39.001,110.364 38.145 C 108.545 37.263,108.182 36.899,107.225 35.004 C 106.569 33.705,105.817 32.736,105.317 32.546 C 104.225 32.131,101.529 31.845,100.598 32.045 M44.772 208.769 C 44.330 208.947,43.968 209.259,43.968 209.462 C 43.968 209.666,42.922 210.848,41.644 212.088 C 40.366 213.329,39.320 214.656,39.319 215.036 C 39.315 216.533,38.488 218.582,37.484 219.586 C 36.904 220.167,36.476 220.670,36.534 220.706 C 38.365 221.829,38.625 222.142,39.128 223.835 C 39.440 224.887,39.678 227.041,39.678 228.818 C 39.678 233.245,40.978 237.236,43.101 239.329 C 44.628 240.834,44.788 241.217,45.716 245.576 C 46.864 250.977,47.109 251.509,48.761 252.199 C 50.255 252.823,50.544 253.195,51.479 255.694 C 52.054 257.232,52.838 258.338,54.544 260.019 C 55.805 261.261,56.836 262.448,56.836 262.656 C 56.836 262.864,58.016 264.214,59.458 265.656 C 60.900 267.098,62.147 268.451,62.229 268.663 C 62.310 268.874,63.342 269.495,64.522 270.042 C 67.074 271.226,68.113 272.112,69.019 273.879 C 69.623 275.057,69.905 275.235,71.754 275.601 C 74.992 276.243,75.059 276.279,77.472 278.656 L 79.758 280.908 83.042 281.319 C 89.830 282.168,91.416 282.439,94.593 283.298 C 96.387 283.783,98.749 284.719,99.842 285.377 L 101.829 286.573 109.131 286.822 C 113.147 286.959,155.927 287.051,204.196 287.026 C 271.491 286.992,292.119 287.081,292.641 287.407 C 296.419 289.767,295.827 297.994,291.739 299.932 C 290.980 300.292,290.338 300.991,289.931 301.902 C 289.124 303.704,287.049 305.529,285.471 305.825 C 284.541 306.000,284.186 306.280,284.011 306.981 C 283.883 307.489,283.467 308.550,283.087 309.337 C 281.627 312.358,282.508 317.644,284.531 318.009 C 287.200 318.491,288.612 319.922,289.318 322.862 C 289.504 323.636,289.817 323.876,290.888 324.064 C 292.973 324.429,293.827 325.178,294.927 327.602 L 295.946 329.849 298.188 330.011 C 301.135 330.224,303.377 329.735,303.896 328.765 C 304.429 327.770,308.136 324.281,308.943 324.016 C 309.290 323.902,309.788 323.296,310.050 322.670 C 310.312 322.043,311.222 321.050,312.072 320.462 C 312.922 319.873,314.139 318.829,314.776 318.141 C 316.437 316.348,318.508 314.258,320.322 312.545 C 321.187 311.728,322.193 310.629,322.558 310.103 C 322.923 309.578,323.661 308.879,324.197 308.551 C 324.733 308.222,326.179 306.747,327.410 305.273 C 328.641 303.798,329.930 302.431,330.274 302.234 C 330.618 302.038,331.447 301.233,332.116 300.447 C 332.785 299.660,333.463 298.921,333.623 298.804 C 334.136 298.427,346.865 285.768,348.364 284.142 C 349.161 283.280,350.447 282.004,351.224 281.308 C 352.001 280.611,353.377 279.244,354.281 278.269 C 355.186 277.294,356.779 275.693,357.821 274.710 C 361.038 271.675,363.109 268.811,362.087 268.811 C 360.082 268.811,357.180 266.378,356.761 264.345 C 356.577 263.455,356.119 263.062,354.052 262.021 C 351.735 260.855,351.527 260.652,351.028 259.077 C 350.535 257.525,350.308 257.296,348.248 256.280 C 345.945 255.144,345.178 254.345,344.760 252.646 C 344.533 251.724,343.215 250.657,340.380 249.102 C 339.692 248.724,339.152 248.026,338.859 247.136 C 338.366 245.638,336.835 243.789,336.087 243.789 C 334.784 243.789,333.497 242.609,332.481 240.483 C 331.499 238.427,331.273 238.198,329.644 237.623 C 327.769 236.960,327.248 236.378,326.176 233.746 C 325.581 232.288,325.329 232.056,323.935 231.683 C 322.038 231.176,321.037 230.128,320.276 227.851 C 319.758 226.305,319.546 226.087,318.060 225.582 C 315.886 224.842,315.071 224.040,314.381 221.963 C 313.853 220.373,313.673 220.195,312.057 219.658 C 309.972 218.966,308.803 217.854,308.296 216.081 C 307.917 214.757,306.975 214.043,304.271 213.030 C 303.503 212.742,302.854 212.125,302.415 211.263 C 301.429 209.331,300.056 208.489,299.767 209.639 C 299.527 210.594,298.619 211.375,295.324 213.460 C 293.899 214.362,292.938 215.246,292.728 215.850 C 292.540 216.389,291.382 217.557,290.080 218.521 C 288.807 219.463,287.289 220.909,286.705 221.734 C 286.122 222.560,284.914 223.951,284.020 224.825 L 282.395 226.416 282.395 229.325 L 282.395 232.234 284.450 233.229 C 287.123 234.522,287.685 235.047,288.117 236.650 C 288.489 238.031,289.899 239.213,292.363 240.210 C 296.074 241.710,296.154 252.265,292.472 254.745 C 290.126 256.326,291.693 256.301,197.927 256.293 C 93.995 256.285,99.051 256.461,97.250 252.796 C 96.591 251.455,96.533 251.433,92.422 250.933 C 87.830 250.374,85.448 249.351,84.525 247.542 C 83.273 245.090,82.516 244.147,81.800 244.147 C 79.690 244.147,78.148 242.496,77.373 239.410 C 77.040 238.083,76.649 236.997,76.504 236.997 C 76.359 236.997,75.503 236.349,74.603 235.556 C 71.810 233.098,71.389 231.466,71.212 222.431 L 71.064 214.835 68.790 213.364 C 66.967 212.185,66.400 211.589,65.929 210.358 C 65.556 209.381,65.064 208.747,64.575 208.616 C 63.324 208.281,45.648 208.417,44.772 208.769 " stroke="none" fill="#db3c3c" fill-rule="evenodd"></path><path id="path1" d="M96.396 22.758 C 96.265 22.889,96.157 23.280,96.157 23.627 C 96.157 24.009,95.840 24.303,95.353 24.372 C 94.836 24.445,94.508 24.774,94.434 25.290 C 94.360 25.815,94.074 26.095,93.612 26.095 C 92.326 26.095,90.865 27.109,90.633 28.164 C 90.503 28.756,89.973 29.432,89.352 29.799 C 88.638 30.221,88.293 30.709,88.293 31.298 C 88.293 31.992,88.109 32.172,87.399 32.172 C 86.691 32.172,86.506 32.352,86.506 33.041 C 86.506 33.725,86.295 33.936,85.523 34.025 C 84.751 34.113,84.515 34.349,84.427 35.121 C 84.338 35.893,84.127 36.104,83.444 36.104 C 82.754 36.104,82.574 36.289,82.574 36.997 C 82.574 37.700,82.392 37.891,81.725 37.891 C 81.069 37.891,80.827 38.133,80.663 38.956 C 80.524 39.649,80.282 39.957,79.971 39.837 C 79.329 39.591,76.854 42.033,76.854 42.913 C 76.854 43.296,76.653 43.629,76.408 43.652 C 76.162 43.674,75.719 43.714,75.424 43.741 C 75.121 43.768,74.839 44.216,74.775 44.772 C 74.677 45.626,74.505 45.755,73.464 45.755 C 71.888 45.755,71.135 46.068,71.135 46.722 C 71.135 47.838,69.980 49.687,69.283 49.687 C 68.280 49.687,67.203 50.341,67.203 50.951 C 67.203 51.239,66.913 51.475,66.559 51.475 C 65.745 51.475,65.058 52.150,65.058 52.952 C 65.058 53.292,64.745 53.671,64.361 53.792 C 63.978 53.914,63.573 54.302,63.461 54.656 C 63.349 55.009,62.858 55.480,62.370 55.702 C 61.883 55.924,61.483 56.331,61.483 56.605 C 61.483 56.880,61.001 57.201,60.411 57.319 C 59.559 57.489,59.339 57.719,59.339 58.436 C 59.339 59.104,59.151 59.339,58.615 59.339 C 58.170 59.339,57.759 59.686,57.549 60.239 C 57.361 60.734,56.802 61.293,56.307 61.481 C 55.754 61.691,55.407 62.103,55.407 62.547 C 55.407 63.081,55.172 63.271,54.513 63.271 C 53.850 63.271,53.619 63.460,53.619 64.004 C 53.619 64.498,53.269 64.860,52.547 65.112 C 51.769 65.383,51.475 65.714,51.475 66.319 C 51.475 66.912,51.242 67.186,50.670 67.267 C 50.161 67.340,49.825 67.669,49.755 68.164 C 49.677 68.712,49.355 68.980,48.682 69.058 C 47.934 69.144,47.696 69.386,47.608 70.152 C 47.519 70.924,47.308 71.135,46.625 71.135 C 45.942 71.135,45.755 71.322,45.755 72.004 C 45.755 72.633,45.533 72.904,44.951 72.987 C 44.449 73.058,44.106 73.388,44.038 73.864 C 43.963 74.385,43.594 74.695,42.876 74.839 C 42.044 75.005,41.823 75.239,41.823 75.952 C 41.823 76.665,41.644 76.854,40.968 76.854 C 40.371 76.854,40.050 77.105,39.904 77.687 C 39.789 78.145,39.289 78.704,38.793 78.930 C 38.262 79.172,37.891 79.638,37.891 80.064 C 37.891 80.596,37.656 80.786,36.997 80.786 C 36.289 80.786,36.104 80.967,36.104 81.656 C 36.104 82.340,35.893 82.551,35.121 82.639 C 34.349 82.728,34.113 82.963,34.025 83.735 C 33.936 84.508,33.725 84.718,33.041 84.718 C 32.352 84.718,32.172 84.904,32.172 85.612 C 32.172 86.262,31.980 86.506,31.469 86.506 C 30.585 86.506,30.027 87.524,30.027 89.138 C 30.027 90.162,29.881 90.409,29.223 90.502 C 27.805 90.704,28.027 95.800,29.453 95.800 C 29.738 95.800,30.076 96.282,30.206 96.872 C 30.428 97.887,30.536 97.945,32.200 97.945 C 33.825 97.945,33.959 98.011,33.959 98.815 C 33.959 100.156,34.594 101.519,35.220 101.519 C 35.530 101.519,35.950 101.998,36.154 102.584 C 36.477 103.507,36.748 103.677,38.216 103.872 C 39.647 104.062,39.902 104.214,39.881 104.863 C 39.863 105.437,40.098 105.658,40.818 105.741 C 41.561 105.827,41.805 106.070,41.891 106.813 C 41.970 107.496,42.235 107.808,42.806 107.889 C 43.248 107.952,43.630 108.153,43.655 108.336 C 43.680 108.519,43.720 108.870,43.744 109.115 C 43.769 109.361,44.231 109.613,44.772 109.675 C 45.544 109.764,45.755 109.975,45.755 110.658 C 45.755 111.342,45.942 111.528,46.625 111.528 C 47.308 111.528,47.519 111.739,47.608 112.511 C 47.697 113.283,47.932 113.518,48.704 113.607 C 49.476 113.696,49.687 113.907,49.687 114.590 C 49.687 115.274,49.874 115.460,50.557 115.460 C 51.240 115.460,51.451 115.671,51.540 116.443 C 51.619 117.133,51.884 117.459,52.424 117.536 C 52.893 117.603,53.280 117.988,53.414 118.519 C 53.570 119.143,53.879 119.392,54.496 119.392 C 55.172 119.392,55.384 119.606,55.472 120.375 C 55.552 121.065,55.816 121.391,56.356 121.468 C 56.825 121.535,57.212 121.920,57.346 122.451 C 57.505 123.084,57.810 123.324,58.452 123.324 C 59.158 123.324,59.339 123.505,59.339 124.211 C 59.339 124.854,59.579 125.159,60.212 125.317 C 60.743 125.451,61.128 125.838,61.195 126.307 C 61.272 126.847,61.598 127.112,62.288 127.191 C 63.060 127.280,63.271 127.491,63.271 128.174 C 63.271 128.857,63.457 129.044,64.141 129.044 C 64.820 129.044,65.035 129.256,65.124 130.013 C 65.205 130.706,65.491 131.041,66.130 131.189 C 66.696 131.320,67.066 131.687,67.138 132.186 C 67.220 132.753,67.498 132.976,68.121 132.976 C 68.899 132.976,69.165 133.317,69.030 134.145 C 69.005 134.297,69.384 134.573,69.871 134.758 C 70.368 134.947,70.858 135.494,70.985 136.002 C 71.149 136.656,71.450 136.908,72.067 136.908 C 72.719 136.908,72.922 137.102,72.922 137.723 C 72.922 138.301,73.235 138.657,73.995 138.943 C 74.584 139.166,75.067 139.600,75.067 139.909 C 75.067 140.217,75.460 140.568,75.940 140.688 C 76.464 140.820,76.857 141.210,76.923 141.663 C 76.990 142.122,77.384 142.508,77.927 142.644 C 78.418 142.768,78.775 143.073,78.718 143.322 C 78.571 143.978,79.336 144.772,80.115 144.772 C 80.546 144.772,80.786 145.026,80.786 145.480 C 80.786 145.927,81.099 146.267,81.635 146.401 C 82.102 146.519,82.662 147.004,82.879 147.481 C 83.096 147.957,83.502 148.347,83.782 148.347 C 84.062 148.347,84.459 148.829,84.665 149.419 C 84.911 150.124,85.281 150.492,85.747 150.492 C 86.203 150.492,86.497 150.771,86.570 151.272 C 86.641 151.755,87.031 152.144,87.595 152.294 C 88.842 152.625,90.277 154.041,90.568 155.228 C 90.791 156.136,90.944 156.211,92.589 156.211 C 94.329 156.211,94.370 156.235,94.370 157.283 C 94.370 158.342,94.395 158.356,96.292 158.356 C 97.890 158.356,98.305 158.492,98.749 159.160 C 99.552 160.369,105.888 160.385,106.864 159.180 C 107.348 158.583,107.958 158.370,109.424 158.287 C 111.227 158.184,111.357 158.114,111.463 157.194 C 111.551 156.424,111.763 156.211,112.439 156.211 C 113.056 156.211,113.364 155.962,113.521 155.338 C 113.654 154.806,114.042 154.422,114.511 154.355 C 114.994 154.286,115.324 153.945,115.396 153.441 C 115.464 152.960,115.759 152.636,116.129 152.636 C 116.921 152.636,117.605 151.952,117.605 151.160 C 117.605 150.790,117.929 150.495,118.409 150.427 C 118.926 150.354,119.254 150.025,119.328 149.509 C 119.398 149.014,119.768 148.624,120.290 148.492 C 120.791 148.367,121.184 147.970,121.249 147.523 C 121.316 147.059,121.702 146.687,122.252 146.559 C 122.807 146.430,123.188 146.061,123.257 145.584 C 123.325 145.112,123.669 144.773,124.151 144.705 C 124.824 144.609,124.948 144.335,125.040 142.739 C 125.140 141.021,125.219 140.876,126.113 140.773 C 126.789 140.695,127.111 140.427,127.189 139.879 C 127.258 139.392,127.595 139.055,128.083 138.985 C 129.309 138.811,129.307 127.987,128.080 127.448 C 127.649 127.259,127.203 126.736,127.091 126.286 C 126.948 125.717,126.623 125.469,126.022 125.469 C 125.346 125.469,125.135 125.256,125.046 124.486 C 124.966 123.792,124.703 123.470,124.151 123.392 C 123.663 123.322,123.326 122.985,123.257 122.498 C 123.187 122.003,122.850 121.674,122.342 121.602 C 121.840 121.530,121.456 121.161,121.319 120.616 C 121.194 120.114,120.757 119.657,120.291 119.540 C 119.846 119.429,119.304 118.948,119.087 118.471 C 118.850 117.950,118.390 117.605,117.932 117.605 C 117.385 117.605,117.232 117.446,117.388 117.040 C 117.507 116.729,117.605 116.246,117.605 115.967 C 117.605 115.531,130.321 115.460,208.852 115.460 L 300.099 115.460 300.451 116.253 C 300.858 117.165,301.888 117.519,304.290 117.569 C 305.526 117.595,305.987 117.747,305.987 118.129 C 305.987 118.742,307.066 119.392,308.084 119.392 C 308.477 119.392,309.142 119.875,309.562 120.465 C 309.982 121.055,310.625 121.537,310.991 121.537 C 311.410 121.537,311.700 121.836,311.771 122.341 C 311.843 122.846,312.173 123.187,312.656 123.255 C 313.114 123.321,313.512 123.704,313.636 124.199 C 313.761 124.697,314.207 125.123,314.742 125.258 C 315.398 125.422,315.639 125.721,315.639 126.370 C 315.639 127.077,315.820 127.256,316.533 127.256 C 317.248 127.256,317.426 127.435,317.426 128.150 C 317.426 128.905,317.593 129.044,318.499 129.044 L 319.571 129.044 319.571 131.865 C 319.571 134.565,319.609 134.695,320.452 134.907 C 321.308 135.122,321.336 135.233,321.435 138.788 C 321.531 142.217,321.585 142.456,322.301 142.558 C 322.992 142.656,323.087 142.963,323.306 145.775 C 323.607 149.639,323.714 150.012,324.587 150.241 C 325.181 150.396,325.290 150.736,325.290 152.424 C 325.290 154.293,325.346 154.424,326.144 154.424 C 326.887 154.424,327.029 154.641,327.251 156.122 C 327.543 158.073,327.833 158.343,329.644 158.350 C 330.735 158.355,330.980 158.493,331.074 159.160 C 331.156 159.733,331.468 159.996,332.158 160.076 C 332.691 160.138,333.633 160.660,334.251 161.238 C 334.958 161.899,335.758 162.288,336.410 162.288 C 337.098 162.288,337.444 162.470,337.444 162.833 C 337.444 163.852,339.269 164.075,347.616 164.075 L 355.955 164.075 356.179 163.181 C 356.377 162.391,356.593 162.288,358.036 162.288 C 359.522 162.288,359.705 162.191,360.074 161.215 C 360.444 160.235,360.621 160.143,362.149 160.143 C 363.632 160.143,363.844 160.043,364.043 159.249 C 364.207 158.597,364.506 158.356,365.154 158.356 C 365.901 158.356,366.041 158.187,366.041 157.283 C 366.041 156.378,366.180 156.211,366.935 156.211 C 367.650 156.211,367.828 156.032,367.828 155.317 C 367.828 154.654,368.018 154.424,368.562 154.424 C 369.052 154.424,369.417 154.075,369.662 153.372 C 369.891 152.715,370.319 152.280,370.805 152.211 C 371.468 152.116,371.597 151.836,371.687 150.301 C 371.772 148.846,371.943 148.437,372.581 148.157 C 374.304 147.400,374.302 138.211,372.578 137.454 C 371.870 137.144,371.776 136.806,371.684 134.237 C 371.589 131.569,371.525 131.359,370.777 131.253 C 370.088 131.155,369.973 130.923,369.973 129.627 C 369.973 128.003,369.500 127.256,368.472 127.256 C 367.895 127.256,367.828 126.885,367.828 123.658 C 367.828 120.132,367.508 118.793,366.525 118.213 C 366.213 118.028,366.041 117.239,366.041 115.985 C 366.041 114.213,365.963 114.025,365.147 113.820 C 364.458 113.647,364.254 113.365,364.254 112.585 C 364.254 110.987,363.639 109.741,362.851 109.741 C 362.253 109.741,362.130 109.457,362.038 107.864 C 361.944 106.229,361.827 105.973,361.126 105.873 C 360.451 105.777,360.322 105.538,360.322 104.380 C 360.322 102.967,359.610 101.877,358.688 101.877 C 358.381 101.877,358.177 101.519,358.177 100.983 C 358.177 100.268,357.998 100.089,357.283 100.089 C 356.469 100.089,356.390 99.954,356.390 98.552 C 356.390 96.906,355.921 96.157,354.888 96.157 C 354.440 96.157,354.245 95.886,354.245 95.264 C 354.245 94.555,354.065 94.370,353.375 94.370 C 352.692 94.370,352.481 94.159,352.392 93.387 C 352.303 92.615,352.068 92.380,351.296 92.291 C 350.524 92.202,350.313 91.991,350.313 91.308 C 350.313 90.625,350.126 90.438,349.443 90.438 C 348.760 90.438,348.549 90.227,348.460 89.455 C 348.381 88.766,348.116 88.439,347.576 88.362 C 347.107 88.295,346.720 87.911,346.586 87.379 C 346.428 86.747,346.123 86.506,345.480 86.506 C 344.779 86.506,344.593 86.324,344.593 85.637 C 344.593 85.014,344.370 84.736,343.804 84.654 C 343.304 84.582,342.938 84.212,342.807 83.646 C 342.660 83.013,342.323 82.720,341.652 82.641 C 340.994 82.564,340.671 82.292,340.594 81.748 C 340.498 81.073,340.224 80.950,338.606 80.857 C 336.907 80.759,336.729 80.670,336.729 79.912 C 336.729 79.022,336.134 78.642,334.742 78.642 C 334.223 78.642,333.655 78.290,333.300 77.748 C 332.808 76.997,332.437 76.854,330.969 76.854 C 329.526 76.854,329.223 76.743,329.223 76.211 C 329.223 75.188,328.478 74.710,326.885 74.710 C 325.653 74.710,325.337 74.560,324.998 73.816 C 324.651 73.053,324.352 72.922,322.966 72.922 C 321.561 72.922,321.295 72.801,321.001 72.029 C 320.743 71.351,320.378 71.119,319.491 71.068 C 318.847 71.031,317.918 70.972,317.426 70.937 C 316.935 70.902,315.887 70.852,315.098 70.826 C 313.979 70.788,313.586 70.600,313.311 69.973 L 312.958 69.169 214.120 68.990 C 148.041 68.871,115.462 68.693,115.826 68.454 C 116.512 68.004,117.605 66.306,117.605 65.692 C 117.605 65.436,117.967 65.069,118.409 64.875 C 118.852 64.681,119.265 64.160,119.328 63.718 C 119.409 63.143,119.683 62.913,120.286 62.913 C 120.889 62.913,121.163 62.684,121.244 62.109 C 121.326 61.533,121.638 61.273,122.341 61.192 C 123.113 61.103,123.324 60.892,123.324 60.209 C 123.324 59.519,123.510 59.339,124.218 59.339 C 124.968 59.339,125.112 59.170,125.112 58.290 C 125.112 57.412,125.271 57.223,126.095 57.128 C 126.799 57.047,127.110 56.787,127.192 56.211 C 127.275 55.629,127.546 55.407,128.175 55.407 L 129.044 55.407 129.044 49.177 C 129.044 42.941,128.828 41.823,127.627 41.823 C 127.466 41.823,127.233 41.421,127.110 40.929 C 126.946 40.277,126.646 40.036,125.999 40.036 C 125.251 40.036,125.112 39.867,125.112 38.963 C 125.112 38.058,124.973 37.891,124.218 37.891 C 123.503 37.891,123.324 37.712,123.324 36.997 C 123.324 36.295,123.143 36.104,122.475 36.104 C 121.818 36.104,121.578 35.862,121.412 35.031 C 121.242 34.180,121.012 33.959,120.295 33.959 C 119.570 33.959,119.392 33.783,119.392 33.065 C 119.392 32.352,119.213 32.172,118.505 32.172 C 117.857 32.172,117.558 31.931,117.394 31.275 C 117.259 30.740,116.832 30.294,116.335 30.169 C 115.848 30.047,115.455 29.645,115.391 29.204 C 115.324 28.739,114.937 28.367,114.388 28.239 C 113.837 28.111,113.452 27.740,113.384 27.273 C 113.295 26.658,112.941 26.468,111.528 26.273 C 110.102 26.077,109.762 25.892,109.672 25.260 C 109.578 24.596,109.297 24.471,107.685 24.378 C 105.962 24.279,105.809 24.199,105.809 23.395 L 105.809 22.520 101.221 22.520 C 98.698 22.520,96.527 22.627,96.396 22.758 M105.122 28.827 C 108.342 30.414,108.780 30.781,115.112 37.196 L 121.734 43.906 122.708 46.980 C 123.808 50.451,123.873 51.275,123.146 52.547 C 122.865 53.038,122.629 53.747,122.622 54.121 C 122.601 55.274,120.799 58.697,120.121 58.874 C 119.768 58.966,119.293 59.451,119.065 59.951 C 118.837 60.452,118.555 60.765,118.438 60.649 C 118.047 60.258,116.890 61.143,116.890 61.833 C 116.890 62.208,116.594 62.726,116.233 62.982 C 115.872 63.239,115.469 63.881,115.338 64.409 C 115.208 64.936,114.579 65.732,113.940 66.177 C 111.097 68.157,110.785 68.850,112.154 70.141 C 114.312 72.177,110.058 72.111,248.079 72.242 C 306.887 72.298,310.617 72.475,315.639 75.443 C 316.989 76.241,319.610 77.291,321.895 77.947 C 326.481 79.266,328.508 80.031,328.508 80.445 C 328.508 80.942,334.413 84.704,336.092 85.275 C 337.171 85.643,338.109 86.345,339.065 87.500 C 339.833 88.428,340.590 89.241,340.747 89.308 C 340.903 89.375,341.234 89.632,341.481 89.879 C 341.728 90.126,342.549 90.622,343.306 90.981 C 344.211 91.410,345.094 92.279,345.889 93.521 C 346.553 94.560,347.965 96.100,349.026 96.945 C 350.253 97.922,351.254 99.105,351.776 100.196 C 352.227 101.139,353.463 102.908,354.524 104.128 C 356.772 106.713,357.112 107.312,358.566 111.257 C 359.164 112.879,360.287 115.045,361.062 116.071 C 363.056 118.712,364.017 121.847,364.992 128.881 C 365.497 132.522,366.464 135.264,367.856 136.996 C 370.519 140.310,370.206 145.541,367.146 148.862 C 365.325 150.837,363.539 153.353,363.539 153.941 C 363.539 154.533,362.347 155.452,361.013 155.889 C 360.338 156.110,359.095 156.612,358.251 157.005 C 353.340 159.291,340.092 159.141,335.836 156.752 C 335.049 156.311,333.808 155.757,333.077 155.520 C 331.659 155.062,329.943 153.328,329.930 152.341 C 329.925 152.012,329.595 151.023,329.196 150.143 C 328.679 149.003,328.379 147.258,328.150 144.066 C 327.785 138.970,326.930 135.775,325.399 133.796 C 324.822 133.050,324.142 131.716,323.887 130.831 C 323.139 128.239,321.814 125.931,320.007 124.075 C 319.079 123.121,317.757 121.741,317.069 121.008 C 316.381 120.274,315.203 119.361,314.452 118.977 C 313.702 118.594,312.371 117.605,311.495 116.781 C 310.277 115.634,309.338 115.130,307.498 114.635 C 306.176 114.280,304.531 113.803,303.843 113.576 C 302.117 113.006,117.510 112.763,115.414 113.328 C 114.298 113.628,113.763 114.070,112.938 115.371 C 111.570 117.527,111.430 117.169,114.959 120.554 C 120.709 126.070,122.414 128.491,123.122 132.146 L 123.734 135.299 122.453 138.289 C 120.695 142.391,120.126 143.273,118.677 144.141 C 117.236 145.004,115.897 146.339,114.904 147.904 C 114.522 148.506,113.409 149.535,112.432 150.192 C 111.454 150.848,110.167 152.040,109.572 152.840 C 106.859 156.488,98.935 157.587,95.729 154.760 C 95.080 154.188,94.450 153.718,94.329 153.714 C 94.209 153.711,93.672 153.077,93.137 152.306 C 92.603 151.534,91.053 150.075,89.693 149.064 C 88.333 148.053,87.221 146.992,87.221 146.706 C 87.221 146.086,83.869 142.787,82.510 142.069 C 81.983 141.790,81.445 141.226,81.314 140.813 C 81.029 139.915,78.144 137.080,76.765 136.343 C 76.224 136.054,75.782 135.598,75.782 135.330 C 75.782 134.752,71.691 130.592,70.834 130.298 C 70.508 130.186,69.794 129.387,69.246 128.522 C 68.699 127.657,67.674 126.495,66.968 125.941 C 66.263 125.387,65.021 124.216,64.210 123.340 C 62.919 121.947,61.506 120.544,58.922 118.090 C 58.537 117.725,57.388 116.540,56.368 115.456 C 55.348 114.373,53.943 113.034,53.246 112.481 C 52.549 111.928,51.441 110.687,50.783 109.723 C 50.125 108.759,49.308 107.881,48.967 107.773 C 48.429 107.602,46.169 105.336,43.763 102.554 C 43.356 102.083,42.310 101.148,41.440 100.477 C 40.569 99.805,39.307 98.503,38.635 97.583 C 37.964 96.663,36.887 95.550,36.244 95.109 C 34.696 94.048,34.322 92.468,35.357 91.365 C 36.151 90.520,38.606 86.595,38.606 86.171 C 38.606 86.034,39.209 85.580,39.946 85.161 C 41.756 84.134,43.414 82.561,44.115 81.205 C 44.433 80.590,45.555 79.450,46.608 78.672 C 47.661 77.894,48.905 76.743,49.373 76.115 C 49.841 75.487,50.862 74.391,51.643 73.680 C 53.662 71.841,55.780 69.670,56.943 68.247 C 57.493 67.575,58.670 66.542,59.560 65.952 C 60.449 65.362,61.427 64.397,61.733 63.807 C 62.373 62.572,64.247 60.750,65.974 59.683 C 66.629 59.277,67.262 58.644,67.379 58.276 C 67.636 57.466,69.829 55.161,71.424 54.025 C 72.062 53.571,73.471 52.087,74.556 50.728 C 75.640 49.369,76.748 48.257,77.018 48.257 C 77.577 48.257,80.257 45.332,80.984 43.929 C 81.250 43.416,81.963 42.791,82.569 42.540 C 83.734 42.057,86.240 39.435,87.074 37.827 C 87.347 37.300,87.917 36.759,88.341 36.625 C 89.380 36.295,92.156 33.700,92.798 32.458 C 93.142 31.793,94.184 31.023,95.898 30.167 C 97.319 29.458,98.803 28.587,99.196 28.232 C 99.589 27.878,100.313 27.515,100.804 27.426 C 101.296 27.337,101.711 27.243,101.727 27.216 C 101.742 27.189,103.270 27.914,105.122 28.827 M48.347 197.556 C 48.101 197.655,47.900 198.038,47.900 198.407 C 47.900 199.000,47.560 199.089,44.951 199.181 C 42.046 199.284,42.000 199.299,41.891 200.246 C 41.805 200.989,41.561 201.233,40.818 201.319 C 40.144 201.397,39.824 201.664,39.745 202.215 C 39.651 202.878,39.371 203.018,37.958 203.109 C 36.945 203.174,36.265 203.394,36.238 203.664 C 36.213 203.910,36.173 204.333,36.148 204.605 C 36.124 204.877,35.784 205.183,35.393 205.286 C 34.636 205.484,33.959 206.852,33.959 208.184 C 33.959 208.793,33.760 208.986,33.155 208.965 C 32.534 208.943,32.324 209.161,32.237 209.920 C 32.150 210.678,31.934 210.903,31.292 210.903 C 30.327 210.903,30.027 211.497,30.027 213.410 C 30.027 214.464,29.862 214.839,29.324 215.009 C 27.857 215.475,27.763 223.857,29.223 224.064 C 29.967 224.170,30.027 224.360,30.027 226.627 C 30.027 229.646,30.228 230.206,31.316 230.206 C 32.103 230.206,32.172 230.347,32.172 231.970 C 32.172 234.105,32.677 235.567,33.414 235.567 C 33.866 235.567,33.959 236.175,33.959 239.117 C 33.959 242.759,34.319 243.789,35.593 243.789 C 35.974 243.789,36.104 244.290,36.104 245.755 C 36.104 247.614,36.152 247.721,36.997 247.721 C 37.868 247.721,38.182 248.782,37.920 250.839 C 37.889 251.079,38.272 251.378,38.771 251.503 C 39.270 251.628,39.695 251.995,39.716 252.318 C 39.737 252.640,39.790 253.146,39.834 253.441 C 39.878 253.735,39.941 254.241,39.975 254.564 C 40.008 254.886,40.438 255.251,40.929 255.375 C 41.733 255.576,41.823 255.778,41.823 257.379 C 41.823 258.904,41.923 259.160,42.517 259.160 C 43.263 259.160,43.764 259.728,43.780 260.590 C 43.785 260.906,44.193 261.172,44.772 261.239 C 45.486 261.321,45.755 261.552,45.755 262.081 C 45.755 262.482,46.148 263.119,46.628 263.497 C 47.217 263.960,47.536 264.616,47.611 265.514 C 47.706 266.668,47.852 266.860,48.704 266.959 C 49.474 267.047,49.687 267.259,49.687 267.935 C 49.687 268.552,49.936 268.860,50.560 269.017 C 51.092 269.150,51.477 269.538,51.543 270.007 C 51.609 270.464,51.951 270.820,52.385 270.882 C 52.814 270.944,53.282 271.424,53.516 272.044 C 53.776 272.734,54.165 273.101,54.636 273.101 C 55.111 273.101,55.396 273.375,55.471 273.905 C 55.544 274.422,55.873 274.750,56.389 274.824 C 56.890 274.895,57.275 275.265,57.411 275.807 C 57.566 276.424,57.877 276.676,58.484 276.676 C 59.095 276.676,59.339 276.876,59.339 277.378 C 59.339 278.267,60.359 278.820,61.996 278.820 C 63.117 278.820,63.271 278.928,63.271 279.714 C 63.271 280.413,63.453 280.608,64.107 280.608 C 64.646 280.608,65.084 280.917,65.339 281.477 C 65.641 282.140,66.116 282.403,67.343 282.587 C 68.621 282.778,68.973 282.985,69.060 283.594 C 69.153 284.250,69.440 284.377,71.046 284.469 C 72.740 284.567,72.922 284.658,72.922 285.407 C 72.922 286.352,73.951 286.685,76.874 286.685 C 78.383 286.685,78.606 286.782,78.706 287.489 C 78.806 288.190,79.062 288.307,80.697 288.401 C 82.420 288.500,82.574 288.581,82.574 289.384 C 82.574 290.244,82.627 290.259,85.612 290.259 C 88.425 290.259,88.651 290.313,88.651 290.983 C 88.651 292.413,88.013 292.404,187.512 292.404 C 283.477 292.404,284.540 292.412,284.540 293.101 C 284.540 293.485,284.821 293.962,285.165 294.163 C 285.761 294.510,285.761 294.527,285.165 294.538 C 284.739 294.545,284.540 294.834,284.540 295.442 C 284.540 296.157,284.361 296.336,283.646 296.336 C 282.995 296.336,282.752 296.527,282.752 297.042 C 282.752 297.464,282.322 297.970,281.680 298.302 C 281.038 298.634,280.608 299.140,280.608 299.562 C 280.608 300.077,280.366 300.268,279.714 300.268 C 279.006 300.268,278.820 300.448,278.820 301.138 C 278.820 301.821,278.609 302.032,277.837 302.121 C 277.065 302.210,276.830 302.445,276.741 303.217 C 276.652 303.989,276.441 304.200,275.758 304.200 C 275.066 304.200,274.888 304.385,274.888 305.103 C 274.888 305.722,274.624 306.106,274.045 306.326 C 272.959 306.739,272.744 307.850,272.744 313.034 L 272.744 317.131 273.799 317.529 C 274.728 317.880,274.868 318.123,274.961 319.554 C 275.050 320.915,275.195 321.198,275.850 321.291 C 276.398 321.369,276.666 321.691,276.743 322.363 C 276.830 323.112,277.072 323.349,277.837 323.438 C 278.609 323.526,278.820 323.737,278.820 324.421 C 278.820 325.110,279.006 325.290,279.714 325.290 C 280.427 325.290,280.608 325.470,280.608 326.177 C 280.608 326.817,280.848 327.125,281.470 327.281 C 281.984 327.410,282.421 327.846,282.550 328.360 C 282.706 328.982,283.014 329.223,283.653 329.223 C 284.359 329.223,284.540 329.404,284.540 330.109 C 284.540 330.752,284.781 331.057,285.413 331.215 C 285.945 331.349,286.329 331.736,286.396 332.205 C 286.473 332.746,286.800 333.010,287.489 333.089 C 288.261 333.178,288.472 333.389,288.472 334.072 C 288.472 334.755,288.658 334.942,289.342 334.942 C 290.025 334.942,290.236 335.153,290.325 335.925 C 290.413 336.691,290.650 336.932,291.399 337.019 C 292.072 337.097,292.393 337.365,292.471 337.913 C 292.567 338.588,292.841 338.710,294.459 338.803 C 296.178 338.902,296.336 338.984,296.336 339.780 C 296.336 341.531,303.576 341.606,303.777 339.857 C 303.872 339.034,304.061 338.874,304.939 338.874 C 305.819 338.874,305.987 338.730,305.987 337.980 C 305.987 337.265,306.166 337.087,306.881 337.087 C 307.632 337.087,307.775 336.919,307.775 336.033 C 307.775 335.014,307.836 334.976,309.651 334.871 C 311.270 334.778,311.543 334.655,311.639 333.981 C 311.709 333.494,312.046 333.157,312.533 333.087 C 313.207 332.991,313.330 332.717,313.423 331.117 L 313.530 329.259 315.389 329.151 C 317.109 329.052,317.256 328.972,317.359 328.083 C 317.436 327.410,317.704 327.088,318.252 327.010 C 318.874 326.922,319.102 326.551,319.363 325.201 C 319.664 323.641,319.775 323.503,320.727 323.503 C 322.128 323.503,323.146 322.907,323.146 322.086 C 323.146 321.655,323.439 321.366,323.950 321.294 C 324.597 321.202,324.818 320.849,325.082 319.482 C 325.335 318.174,325.565 317.784,326.083 317.784 C 327.105 317.784,328.865 316.761,328.865 316.166 C 328.865 315.876,329.095 315.639,329.376 315.639 C 330.305 315.639,331.010 314.549,331.010 313.111 C 331.010 311.797,331.077 311.707,332.056 311.707 C 332.755 311.707,333.343 311.401,333.826 310.787 C 334.224 310.281,335.000 309.747,335.550 309.601 C 336.442 309.364,336.562 309.154,336.659 307.661 C 336.757 306.167,336.860 305.987,337.619 305.987 C 338.979 305.987,340.224 305.373,340.476 304.578 C 340.625 304.109,341.016 303.843,341.554 303.843 C 342.158 303.843,342.431 303.613,342.513 303.038 C 342.576 302.596,342.980 302.079,343.412 301.890 C 343.844 301.700,344.286 301.189,344.396 300.753 C 344.514 300.283,344.922 299.914,345.398 299.846 C 345.915 299.773,346.243 299.444,346.316 298.928 C 346.399 298.343,346.670 298.123,347.308 298.123 C 347.997 298.123,348.232 297.893,348.400 297.051 C 348.546 296.322,348.827 295.979,349.278 295.979 C 349.688 295.979,350.028 295.637,350.166 295.085 C 350.308 294.521,350.643 294.191,351.075 294.191 C 351.471 294.191,351.899 293.826,352.090 293.325 C 352.280 292.823,352.766 292.410,353.243 292.342 C 353.839 292.257,354.097 291.954,354.179 291.242 C 354.268 290.470,354.479 290.259,355.162 290.259 C 355.797 290.259,356.032 290.064,356.032 289.537 C 356.032 289.114,356.401 288.646,356.919 288.410 C 357.407 288.188,357.895 287.725,358.004 287.381 C 358.113 287.037,358.596 286.657,359.078 286.536 C 359.606 286.403,360.040 285.972,360.171 285.448 C 360.303 284.922,360.692 284.537,361.160 284.471 C 361.631 284.404,361.973 284.062,362.040 283.590 C 362.105 283.133,362.489 282.735,362.984 282.610 C 363.481 282.486,363.908 282.040,364.042 281.504 C 364.207 280.849,364.506 280.608,365.154 280.608 C 365.862 280.608,366.041 280.427,366.041 279.714 C 366.041 278.999,366.220 278.820,366.935 278.820 C 367.685 278.820,367.828 278.652,367.828 277.772 C 367.828 276.893,367.988 276.705,368.811 276.610 C 369.515 276.529,369.827 276.268,369.909 275.693 C 369.991 275.110,370.263 274.888,370.892 274.888 C 371.578 274.888,371.761 274.702,371.761 274.001 C 371.761 273.363,372.001 273.054,372.620 272.899 C 374.422 272.447,374.428 265.829,372.627 265.377 C 372.140 265.255,371.756 264.854,371.692 264.399 C 371.602 263.772,371.233 263.569,369.705 263.310 L 367.828 262.991 367.828 261.254 C 367.828 259.640,367.765 259.517,366.935 259.517 C 366.313 259.517,366.041 259.322,366.041 258.874 C 366.041 258.005,365.351 257.373,364.403 257.373 C 363.923 257.373,363.550 257.097,363.435 256.658 C 363.332 256.265,363.009 255.943,362.717 255.943 C 362.425 255.943,362.084 255.535,361.959 255.037 C 361.832 254.530,361.342 253.982,360.848 253.794 C 360.362 253.609,359.964 253.219,359.964 252.926 C 359.964 252.225,358.851 251.653,357.486 251.653 C 356.562 251.653,356.390 251.516,356.390 250.780 C 356.390 250.188,356.043 249.702,355.317 249.273 C 354.640 248.873,354.245 248.348,354.245 247.848 C 354.245 246.653,353.295 245.934,351.717 245.934 C 350.395 245.934,350.313 245.871,350.313 244.861 C 350.313 243.971,350.169 243.789,349.465 243.789 C 348.753 243.789,348.580 243.561,348.389 242.367 C 348.150 240.873,346.911 239.857,345.326 239.857 C 344.783 239.857,344.593 239.626,344.593 238.963 C 344.593 238.248,344.415 238.070,343.700 238.070 C 342.990 238.070,342.806 237.890,342.806 237.196 C 342.806 236.605,342.460 236.118,341.734 235.689 C 341.144 235.341,340.661 234.849,340.661 234.597 C 340.661 234.344,340.259 234.138,339.768 234.138 C 339.053 234.138,338.874 233.959,338.874 233.244 C 338.874 232.489,338.707 232.350,337.802 232.350 C 336.848 232.350,336.729 232.231,336.729 231.278 C 336.729 230.372,336.590 230.206,335.836 230.206 C 335.121 230.206,334.942 230.027,334.942 229.312 C 334.942 228.557,334.775 228.418,333.870 228.418 C 332.966 228.418,332.797 228.278,332.797 227.531 C 332.797 226.889,332.556 226.584,331.924 226.425 C 331.392 226.292,331.008 225.905,330.941 225.436 C 330.874 224.964,330.532 224.622,330.060 224.555 C 329.593 224.488,329.204 224.104,329.072 223.577 C 328.939 223.049,328.506 222.622,327.966 222.487 C 327.477 222.364,327.078 222.026,327.078 221.735 C 327.078 221.445,326.606 221.029,326.029 220.811 C 325.452 220.593,324.901 220.113,324.804 219.743 C 324.708 219.374,324.295 218.984,323.887 218.877 C 323.411 218.753,323.146 218.392,323.146 217.870 C 323.146 216.942,322.542 216.622,320.793 216.622 C 319.852 216.622,319.571 216.473,319.571 215.974 C 319.571 215.618,319.098 214.977,318.521 214.550 C 317.739 213.972,317.442 213.428,317.359 212.427 C 317.255 211.175,317.160 211.073,315.996 210.964 C 314.665 210.839,313.494 210.032,313.494 209.239 C 313.494 208.964,313.111 208.758,312.601 208.758 C 311.911 208.758,311.707 208.573,311.707 207.950 C 311.707 207.173,309.701 205.056,308.873 204.960 C 308.662 204.935,308.340 204.895,308.157 204.870 C 307.974 204.846,307.773 204.464,307.710 204.021 C 307.596 203.217,307.595 203.217,299.303 203.112 L 291.009 203.006 290.446 204.095 C 290.107 204.750,289.603 205.183,289.178 205.183 C 288.663 205.183,288.472 205.425,288.472 206.077 C 288.472 206.790,288.293 206.971,287.585 206.971 C 286.943 206.971,286.638 207.211,286.479 207.844 C 286.346 208.375,285.958 208.760,285.489 208.827 C 284.954 208.903,284.685 209.230,284.607 209.898 C 284.522 210.641,284.278 210.885,283.535 210.970 C 282.862 211.048,282.540 211.316,282.462 211.864 C 282.393 212.351,282.056 212.688,281.569 212.757 C 281.016 212.836,280.753 213.157,280.673 213.852 C 280.584 214.624,280.374 214.835,279.690 214.835 C 279.001 214.835,278.820 215.020,278.820 215.728 C 278.820 216.483,278.654 216.622,277.748 216.622 C 276.795 216.622,276.676 216.741,276.676 217.694 C 276.676 218.600,276.537 218.767,275.782 218.767 C 275.027 218.767,274.888 218.934,274.888 219.839 C 274.888 220.546,274.709 220.912,274.361 220.912 C 273.171 220.912,272.744 222.823,272.744 228.150 C 272.744 233.447,272.917 234.138,274.245 234.138 C 274.693 234.138,274.888 234.409,274.888 235.031 C 274.888 235.740,275.069 235.925,275.758 235.925 C 276.441 235.925,276.652 236.136,276.741 236.908 C 276.830 237.680,277.065 237.915,277.837 238.004 C 278.718 238.105,278.820 238.259,278.820 239.480 C 278.820 241.067,279.221 241.488,281.055 241.831 C 281.792 241.969,282.415 242.224,282.440 242.399 C 282.464 242.574,282.504 242.918,282.529 243.164 C 282.554 243.409,283.016 243.661,283.557 243.723 C 284.380 243.818,284.540 244.007,284.540 244.885 L 284.540 245.934 193.054 245.934 L 101.569 245.934 101.455 245.144 C 101.320 244.216,100.346 243.875,97.676 243.825 C 96.056 243.794,95.800 243.692,95.800 243.081 C 95.800 242.623,95.483 242.293,94.901 242.147 C 94.407 242.023,93.505 241.457,92.897 240.889 C 92.289 240.322,91.418 239.857,90.961 239.857 C 90.372 239.857,90.097 239.623,90.016 239.053 C 89.943 238.536,89.614 238.208,89.097 238.134 C 88.517 238.052,88.293 237.780,88.293 237.158 C 88.293 236.542,88.044 236.233,87.420 236.077 C 86.888 235.943,86.504 235.556,86.437 235.087 C 86.360 234.547,86.033 234.283,85.344 234.203 C 84.572 234.114,84.361 233.903,84.361 233.220 C 84.361 232.531,84.176 232.350,83.467 232.350 C 82.596 232.350,82.574 232.286,82.574 229.741 C 82.574 227.046,82.239 226.273,81.072 226.273 C 80.501 226.273,80.429 225.917,80.429 223.082 C 80.429 219.989,80.026 218.767,79.008 218.767 C 78.844 218.767,78.655 217.218,78.587 215.325 C 78.475 212.224,78.383 211.830,77.659 211.349 C 77.031 210.933,76.845 210.452,76.812 209.161 C 76.741 206.388,76.405 205.375,75.512 205.248 C 74.889 205.159,74.710 204.899,74.710 204.086 C 74.710 203.160,74.585 203.038,73.637 203.038 C 72.732 203.038,72.565 202.899,72.565 202.145 C 72.565 201.312,72.444 201.251,70.801 201.251 C 69.143 201.251,69.031 201.192,68.925 200.268 C 68.820 199.355,68.681 199.277,66.984 199.179 C 65.445 199.089,65.095 198.935,64.758 198.196 L 64.358 197.319 56.576 197.347 C 52.296 197.363,48.592 197.457,48.347 197.556 M60.814 204.271 C 69.882 205.758,73.203 209.268,73.771 217.965 C 74.077 222.654,74.939 226.090,76.345 228.224 C 76.999 229.216,78.036 231.427,78.651 233.138 C 79.542 235.617,80.073 236.523,81.261 237.593 C 82.081 238.332,83.190 239.537,83.724 240.272 C 84.259 241.007,85.914 242.460,87.403 243.503 C 88.891 244.545,90.932 245.979,91.939 246.690 C 93.581 247.849,94.343 248.088,99.342 249.013 L 104.915 250.045 194.817 250.045 L 284.718 250.045 286.506 249.289 C 291.064 247.363,290.844 245.433,285.457 240.087 C 281.139 235.801,279.576 233.553,279.112 230.958 C 278.324 226.553,278.315 226.723,279.445 224.571 C 280.037 223.443,280.718 221.904,280.959 221.152 C 281.291 220.114,281.842 219.496,283.236 218.599 C 285.254 217.301,286.254 216.302,287.208 214.631 C 287.552 214.028,288.778 212.904,289.931 212.134 C 291.085 211.364,292.494 210.072,293.064 209.263 C 296.258 204.733,305.543 205.145,308.629 209.954 C 309.152 210.771,310.151 211.841,310.847 212.332 C 313.313 214.072,314.241 214.932,314.780 215.974 C 315.429 217.230,317.252 218.944,318.502 219.474 C 318.995 219.683,319.846 220.562,320.394 221.428 C 320.941 222.293,322.033 223.536,322.819 224.190 C 325.114 226.100,326.104 227.106,327.435 228.883 C 328.123 229.802,329.370 230.965,330.206 231.467 C 331.041 231.969,331.725 232.497,331.725 232.640 C 331.725 233.156,334.679 236.459,335.856 237.259 C 336.519 237.709,337.831 239.027,338.772 240.188 C 339.713 241.348,341.299 242.946,342.298 243.740 C 343.296 244.533,344.555 245.819,345.095 246.598 C 345.635 247.377,347.039 248.772,348.217 249.696 C 349.394 250.621,350.766 251.997,351.267 252.753 C 351.767 253.509,353.033 254.788,354.080 255.596 C 355.127 256.404,356.617 257.904,357.392 258.930 C 358.167 259.956,359.618 261.352,360.618 262.033 C 361.618 262.714,362.623 263.711,362.851 264.250 C 363.312 265.340,365.317 267.271,367.052 268.296 C 368.392 269.087,368.417 269.206,367.436 270.094 C 367.023 270.468,366.055 271.852,365.285 273.171 C 363.902 275.539,361.737 277.934,360.662 278.285 C 360.358 278.384,359.477 279.309,358.703 280.341 C 357.087 282.495,356.220 283.344,354.960 284.004 C 354.468 284.261,353.584 285.139,352.994 285.954 C 350.835 288.937,350.589 289.210,349.604 289.720 C 348.305 290.392,346.658 292.047,346.125 293.217 C 345.894 293.725,344.851 294.787,343.808 295.578 C 340.820 297.845,340.395 298.251,340.146 299.084 C 339.907 299.883,338.660 301.053,336.049 302.928 C 335.243 303.507,334.584 304.190,334.584 304.446 C 334.584 305.104,332.104 307.775,331.493 307.775 C 331.215 307.775,330.897 308.010,330.787 308.297 C 330.677 308.585,330.277 308.918,329.898 309.038 C 329.520 309.158,328.895 309.848,328.510 310.571 C 327.515 312.436,326.707 313.292,324.788 314.509 C 323.863 315.095,322.642 316.276,322.074 317.134 C 320.870 318.953,319.768 320.044,318.447 320.727 C 317.928 320.996,316.721 322.249,315.767 323.512 C 314.812 324.774,313.418 326.150,312.669 326.569 C 311.920 326.988,310.660 328.194,309.867 329.248 C 308.210 331.453,307.636 331.911,305.637 332.616 C 304.840 332.897,303.653 333.535,302.999 334.034 C 301.825 334.930,300.017 335.230,299.357 334.638 C 299.170 334.470,297.891 333.902,296.515 333.374 C 294.418 332.571,293.607 331.993,291.510 329.808 C 290.134 328.374,288.671 326.972,288.259 326.693 C 287.847 326.413,286.513 325.027,285.295 323.612 C 284.077 322.197,282.805 320.945,282.469 320.830 C 281.532 320.508,279.936 317.963,279.527 316.136 C 279.325 315.235,278.862 313.918,278.499 313.210 C 277.859 311.962,277.859 311.889,278.494 310.757 C 278.855 310.116,279.401 308.726,279.708 307.668 C 280.380 305.356,281.449 303.834,283.382 302.434 C 285.081 301.203,286.526 299.399,287.076 297.823 C 287.292 297.202,287.590 296.693,287.737 296.693 C 288.331 296.693,290.499 294.222,290.453 293.597 C 290.376 292.545,290.073 292.249,288.047 291.245 L 286.148 290.305 189.991 290.155 C 94.143 290.006,93.829 290.003,92.328 289.277 C 91.499 288.877,89.971 288.347,88.932 288.099 C 87.892 287.851,86.544 287.271,85.936 286.809 C 85.328 286.347,84.597 285.970,84.314 285.970 C 84.030 285.970,83.177 285.653,82.418 285.267 C 81.660 284.880,79.763 284.377,78.203 284.149 C 76.501 283.900,75.294 283.545,75.185 283.260 C 75.085 282.999,74.452 282.460,73.778 282.063 C 73.104 281.665,72.355 281.172,72.112 280.968 C 71.256 280.245,69.160 278.834,68.454 278.506 C 68.061 278.323,67.337 277.990,66.845 277.767 C 64.617 276.752,61.483 274.203,61.483 273.405 C 61.483 273.248,60.961 272.850,60.322 272.521 C 58.496 271.581,56.239 269.597,55.784 268.532 C 55.556 267.998,54.263 266.680,52.911 265.604 C 51.087 264.152,50.398 263.363,50.245 262.545 C 50.015 261.320,49.451 260.475,47.417 258.305 C 45.447 256.203,45.222 255.808,43.430 251.291 C 42.542 249.053,41.688 247.133,41.533 247.025 C 40.367 246.211,38.981 243.322,38.456 240.614 C 38.136 238.966,37.801 237.498,37.710 237.351 C 37.619 237.204,37.305 235.378,37.013 233.294 C 36.467 229.408,35.957 228.108,33.497 224.335 C 31.329 221.009,32.081 216.093,35.221 213.069 C 36.268 212.061,37.459 210.544,37.868 209.699 C 40.073 205.143,50.741 202.620,60.814 204.271 " stroke="none" fill="#852e2c" fill-rule="evenodd"></path><path id="path2" d="M100.804 27.426 C 100.313 27.515,99.589 27.878,99.196 28.232 C 98.803 28.587,97.319 29.458,95.898 30.167 C 94.184 31.023,93.142 31.793,92.798 32.458 C 92.156 33.700,89.380 36.295,88.341 36.625 C 87.917 36.759,87.347 37.300,87.074 37.827 C 86.240 39.435,83.734 42.057,82.569 42.540 C 81.963 42.791,81.250 43.416,80.984 43.929 C 80.257 45.332,77.577 48.257,77.018 48.257 C 76.748 48.257,75.640 49.369,74.556 50.728 C 73.471 52.087,72.062 53.571,71.424 54.025 C 69.829 55.161,67.636 57.466,67.379 58.276 C 67.262 58.644,66.629 59.277,65.974 59.683 C 64.247 60.750,62.373 62.572,61.733 63.807 C 61.427 64.397,60.449 65.362,59.560 65.952 C 58.670 66.542,57.493 67.575,56.943 68.247 C 55.780 69.670,53.662 71.841,51.643 73.680 C 50.862 74.391,49.841 75.487,49.373 76.115 C 48.905 76.743,47.661 77.894,46.608 78.672 C 45.555 79.450,44.433 80.590,44.115 81.205 C 43.414 82.561,41.756 84.134,39.946 85.161 C 39.209 85.580,38.606 86.034,38.606 86.171 C 38.606 86.595,36.151 90.520,35.357 91.365 C 34.322 92.468,34.696 94.048,36.244 95.109 C 36.887 95.550,37.964 96.663,38.635 97.583 C 39.307 98.503,40.569 99.805,41.440 100.477 C 42.310 101.148,43.356 102.083,43.763 102.554 C 46.169 105.336,48.429 107.602,48.967 107.773 C 49.308 107.881,50.125 108.759,50.783 109.723 C 51.441 110.687,52.549 111.928,53.246 112.481 C 53.943 113.034,55.348 114.373,56.368 115.456 C 57.388 116.540,58.537 117.725,58.922 118.090 C 61.506 120.544,62.919 121.947,64.210 123.340 C 65.021 124.216,66.263 125.387,66.968 125.941 C 67.674 126.495,68.699 127.657,69.246 128.522 C 69.794 129.387,70.508 130.186,70.834 130.298 C 71.691 130.592,75.782 134.752,75.782 135.330 C 75.782 135.598,76.224 136.054,76.765 136.343 C 78.144 137.080,81.029 139.915,81.314 140.813 C 81.445 141.226,81.983 141.790,82.510 142.069 C 83.869 142.787,87.221 146.086,87.221 146.706 C 87.221 146.992,88.333 148.053,89.693 149.064 C 91.053 150.075,92.603 151.534,93.137 152.306 C 93.672 153.077,94.209 153.711,94.329 153.714 C 94.450 153.718,95.080 154.188,95.729 154.760 C 98.935 157.587,106.859 156.488,109.572 152.840 C 110.167 152.040,111.454 150.848,112.432 150.192 C 113.409 149.535,114.522 148.506,114.904 147.904 C 115.897 146.339,117.236 145.004,118.677 144.141 C 120.126 143.273,120.695 142.391,122.453 138.289 L 123.734 135.299 123.122 132.146 C 122.414 128.491,120.709 126.070,114.959 120.554 C 111.430 117.169,111.570 117.527,112.938 115.371 C 113.763 114.070,114.298 113.628,115.414 113.328 C 117.510 112.763,302.117 113.006,303.843 113.576 C 304.531 113.803,306.176 114.280,307.498 114.635 C 309.338 115.130,310.277 115.634,311.495 116.781 C 312.371 117.605,313.702 118.594,314.452 118.977 C 315.203 119.361,316.381 120.274,317.069 121.008 C 317.757 121.741,319.079 123.121,320.007 124.075 C 321.814 125.931,323.139 128.239,323.887 130.831 C 324.142 131.716,324.822 133.050,325.399 133.796 C 326.930 135.775,327.785 138.970,328.150 144.066 C 328.379 147.258,328.679 149.003,329.196 150.143 C 329.595 151.023,329.925 152.012,329.930 152.341 C 329.943 153.328,331.659 155.062,333.077 155.520 C 333.808 155.757,335.049 156.311,335.836 156.752 C 340.092 159.141,353.340 159.291,358.251 157.005 C 359.095 156.612,360.338 156.110,361.013 155.889 C 362.347 155.452,363.539 154.533,363.539 153.941 C 363.539 153.353,365.325 150.837,367.146 148.862 C 370.206 145.541,370.519 140.310,367.856 136.996 C 366.464 135.264,365.497 132.522,364.992 128.881 C 364.017 121.847,363.056 118.712,361.062 116.071 C 360.287 115.045,359.164 112.879,358.566 111.257 C 357.112 107.312,356.772 106.713,354.524 104.128 C 353.463 102.908,352.227 101.139,351.776 100.196 C 351.254 99.105,350.253 97.922,349.026 96.945 C 347.965 96.100,346.553 94.560,345.889 93.521 C 345.094 92.279,344.211 91.410,343.306 90.981 C 342.549 90.622,341.728 90.126,341.481 89.879 C 341.234 89.632,340.903 89.375,340.747 89.308 C 340.590 89.241,339.833 88.428,339.065 87.500 C 338.109 86.345,337.171 85.643,336.092 85.275 C 334.413 84.704,328.508 80.942,328.508 80.445 C 328.508 80.031,326.481 79.266,321.895 77.947 C 319.610 77.291,316.989 76.241,315.639 75.443 C 310.617 72.475,306.887 72.298,248.079 72.242 C 110.058 72.111,114.312 72.177,112.154 70.141 C 110.785 68.850,111.097 68.157,113.940 66.177 C 114.579 65.732,115.208 64.936,115.338 64.409 C 115.469 63.881,115.872 63.239,116.233 62.982 C 116.594 62.726,116.890 62.208,116.890 61.833 C 116.890 61.143,118.047 60.258,118.438 60.649 C 118.555 60.765,118.837 60.452,119.065 59.951 C 119.293 59.451,119.768 58.966,120.121 58.874 C 120.799 58.697,122.601 55.274,122.622 54.121 C 122.629 53.747,122.865 53.038,123.146 52.547 C 123.873 51.275,123.808 50.451,122.708 46.980 L 121.734 43.906 115.112 37.196 C 108.780 30.781,108.342 30.414,105.122 28.827 C 103.270 27.914,101.742 27.189,101.727 27.216 C 101.711 27.243,101.296 27.337,100.804 27.426 M104.133 30.234 C 107.290 31.052,108.123 31.588,109.528 33.705 C 110.242 34.782,111.389 35.938,112.186 36.386 C 112.957 36.819,114.130 37.921,114.792 38.833 C 116.418 41.073,117.594 42.243,118.938 42.955 C 120.748 43.915,122.133 49.822,121.253 52.833 C 121.041 53.560,120.674 54.926,120.437 55.867 C 120.061 57.364,119.822 57.664,118.538 58.253 C 116.579 59.151,115.510 60.207,114.695 62.049 C 114.311 62.918,113.367 64.080,112.506 64.744 C 108.371 67.934,108.326 70.504,112.366 72.664 L 113.852 73.458 209.473 73.675 C 313.922 73.911,306.934 73.728,312.422 76.378 C 315.836 78.027,322.863 80.085,325.043 80.075 C 325.399 80.073,326.353 80.801,327.164 81.692 C 328.244 82.878,329.651 83.799,332.416 85.128 C 335.392 86.558,336.634 87.396,338.270 89.075 C 339.413 90.248,340.916 91.445,341.610 91.735 C 343.047 92.336,344.301 93.608,345.297 95.477 C 345.674 96.184,346.434 97.050,346.986 97.400 C 348.880 98.602,350.025 99.914,351.208 102.234 C 351.860 103.512,352.689 104.881,353.051 105.276 C 356.064 108.568,357.033 110.259,357.812 113.593 C 358.085 114.760,359.003 116.602,360.217 118.419 C 362.672 122.092,362.677 122.107,363.165 126.394 C 364.088 134.496,365.122 137.628,367.436 139.332 C 368.430 140.063,368.543 140.339,368.543 142.022 C 368.543 144.080,368.352 144.443,365.489 147.835 C 364.482 149.028,363.365 150.817,363.008 151.811 C 361.939 154.783,358.206 156.111,349.955 156.457 C 334.484 157.105,330.277 154.436,329.563 143.521 C 329.085 136.217,328.023 132.626,326.025 131.556 C 325.618 131.339,324.973 130.058,324.394 128.320 C 323.867 126.739,323.020 124.927,322.512 124.295 C 320.818 122.187,318.336 119.730,316.817 118.656 C 315.991 118.072,314.567 116.913,313.653 116.080 C 311.610 114.218,309.621 113.408,305.451 112.736 C 301.287 112.065,301.243 112.056,298.303 111.191 C 295.808 110.457,295.603 110.456,204.571 110.456 L 113.339 110.456 112.151 111.644 C 110.988 112.807,109.741 115.789,109.741 117.408 C 109.741 118.277,110.705 119.310,113.615 121.559 C 114.665 122.370,115.840 123.569,116.226 124.224 C 116.612 124.879,117.663 126.016,118.561 126.752 C 123.011 130.399,122.470 139.736,117.629 142.820 C 116.419 143.591,115.142 144.818,114.373 145.949 C 113.676 146.973,112.565 148.132,111.904 148.525 C 110.775 149.197,110.102 149.817,106.994 153.050 C 104.549 155.593,100.682 155.863,97.746 153.694 C 95.834 152.282,89.595 146.514,88.134 144.808 C 87.730 144.336,86.517 143.130,85.439 142.127 C 84.360 141.124,82.832 139.587,82.043 138.711 C 81.254 137.834,80.147 136.708,79.584 136.208 C 79.021 135.708,77.975 134.686,77.260 133.936 C 76.545 133.186,75.274 131.899,74.435 131.076 C 73.595 130.253,72.308 128.971,71.575 128.226 C 70.841 127.481,62.904 119.514,53.936 110.521 C 44.969 101.528,37.520 93.817,37.383 93.385 C 36.952 92.029,39.703 86.730,41.148 86.132 C 42.863 85.422,44.468 83.882,45.210 82.237 C 45.665 81.227,46.356 80.508,47.506 79.847 C 49.733 78.568,50.559 77.770,51.272 76.209 C 51.688 75.299,52.563 74.444,54.088 73.458 C 55.712 72.409,56.538 71.577,57.194 70.331 C 57.760 69.256,58.508 68.433,59.232 68.088 C 60.982 67.255,62.513 65.828,63.289 64.308 C 63.740 63.424,64.700 62.478,65.974 61.663 C 67.269 60.835,68.350 59.764,69.087 58.577 C 69.811 57.413,70.904 56.320,72.127 55.538 C 73.451 54.691,74.441 53.664,75.356 52.190 C 76.144 50.920,77.078 49.895,77.673 49.647 C 79.319 48.960,80.347 47.969,81.381 46.068 C 82.078 44.788,82.782 44.054,83.809 43.539 C 85.817 42.530,86.452 41.902,87.442 39.950 C 88.100 38.652,88.702 38.053,90.018 37.387 C 91.951 36.407,92.387 35.963,93.655 33.681 C 94.440 32.268,94.825 31.974,96.824 31.259 C 98.076 30.811,99.274 30.270,99.487 30.057 C 100.030 29.515,101.584 29.574,104.133 30.234 M49.193 204.160 C 43.258 204.922,39.226 206.894,37.868 209.699 C 37.459 210.544,36.268 212.061,35.221 213.069 C 32.081 216.093,31.329 221.009,33.497 224.335 C 35.957 228.108,36.467 229.408,37.013 233.294 C 37.305 235.378,37.619 237.204,37.710 237.351 C 37.801 237.498,38.136 238.966,38.456 240.614 C 38.981 243.322,40.367 246.211,41.533 247.025 C 41.688 247.133,42.542 249.053,43.430 251.291 C 45.222 255.808,45.447 256.203,47.417 258.305 C 49.451 260.475,50.015 261.320,50.245 262.545 C 50.398 263.363,51.087 264.152,52.911 265.604 C 54.263 266.680,55.556 267.998,55.784 268.532 C 56.239 269.597,58.496 271.581,60.322 272.521 C 60.961 272.850,61.483 273.248,61.483 273.405 C 61.483 274.203,64.617 276.752,66.845 277.767 C 67.337 277.990,68.061 278.323,68.454 278.506 C 69.160 278.834,71.256 280.245,72.112 280.968 C 72.355 281.172,73.104 281.665,73.778 282.063 C 74.452 282.460,75.085 282.999,75.185 283.260 C 75.294 283.545,76.501 283.900,78.203 284.149 C 79.763 284.377,81.660 284.880,82.418 285.267 C 83.177 285.653,84.030 285.970,84.314 285.970 C 84.597 285.970,85.328 286.347,85.936 286.809 C 86.544 287.271,87.892 287.851,88.932 288.099 C 89.971 288.347,91.499 288.877,92.328 289.277 C 93.829 290.003,94.143 290.006,189.991 290.155 L 286.148 290.305 288.047 291.245 C 290.073 292.249,290.376 292.545,290.453 293.597 C 290.499 294.222,288.331 296.693,287.737 296.693 C 287.590 296.693,287.292 297.202,287.076 297.823 C 286.526 299.399,285.081 301.203,283.382 302.434 C 281.449 303.834,280.380 305.356,279.708 307.668 C 279.401 308.726,278.855 310.116,278.494 310.757 C 277.859 311.889,277.859 311.962,278.499 313.210 C 278.862 313.918,279.325 315.235,279.527 316.136 C 279.936 317.963,281.532 320.508,282.469 320.830 C 282.805 320.945,284.077 322.197,285.295 323.612 C 286.513 325.027,287.847 326.413,288.259 326.693 C 288.671 326.972,290.134 328.374,291.510 329.808 C 293.607 331.993,294.418 332.571,296.515 333.374 C 297.891 333.902,299.170 334.470,299.357 334.638 C 300.017 335.230,301.825 334.930,302.999 334.034 C 303.653 333.535,304.840 332.897,305.637 332.616 C 307.636 331.911,308.210 331.453,309.867 329.248 C 310.660 328.194,311.920 326.988,312.669 326.569 C 313.418 326.150,314.812 324.774,315.767 323.512 C 316.721 322.249,317.928 320.996,318.447 320.727 C 319.768 320.044,320.870 318.953,322.074 317.134 C 322.642 316.276,323.863 315.095,324.788 314.509 C 326.707 313.292,327.515 312.436,328.510 310.571 C 328.895 309.848,329.520 309.158,329.898 309.038 C 330.277 308.918,330.677 308.585,330.787 308.297 C 330.897 308.010,331.215 307.775,331.493 307.775 C 332.104 307.775,334.584 305.104,334.584 304.446 C 334.584 304.190,335.243 303.507,336.049 302.928 C 338.660 301.053,339.907 299.883,340.146 299.084 C 340.395 298.251,340.820 297.845,343.808 295.578 C 344.851 294.787,345.894 293.725,346.125 293.217 C 346.658 292.047,348.305 290.392,349.604 289.720 C 350.589 289.210,350.835 288.937,352.994 285.954 C 353.584 285.139,354.468 284.261,354.960 284.004 C 356.220 283.344,357.087 282.495,358.703 280.341 C 359.477 279.309,360.358 278.384,360.662 278.285 C 361.737 277.934,363.902 275.539,365.285 273.171 C 366.055 271.852,367.023 270.468,367.436 270.094 C 368.417 269.206,368.392 269.087,367.052 268.296 C 365.317 267.271,363.312 265.340,362.851 264.250 C 362.623 263.711,361.618 262.714,360.618 262.033 C 359.618 261.352,358.167 259.956,357.392 258.930 C 356.617 257.904,355.127 256.404,354.080 255.596 C 353.033 254.788,351.767 253.509,351.267 252.753 C 350.766 251.997,349.394 250.621,348.217 249.696 C 347.039 248.772,345.635 247.377,345.095 246.598 C 344.555 245.819,343.296 244.533,342.298 243.740 C 341.299 242.946,339.713 241.348,338.772 240.188 C 337.831 239.027,336.519 237.709,335.856 237.259 C 334.679 236.459,331.725 233.156,331.725 232.640 C 331.725 232.497,331.041 231.969,330.206 231.467 C 329.370 230.965,328.123 229.802,327.435 228.883 C 326.104 227.106,325.114 226.100,322.819 224.190 C 322.033 223.536,320.941 222.293,320.394 221.428 C 319.846 220.562,318.995 219.683,318.502 219.474 C 317.252 218.944,315.429 217.230,314.780 215.974 C 314.241 214.932,313.313 214.072,310.847 212.332 C 310.151 211.841,309.152 210.771,308.629 209.954 C 305.543 205.145,296.258 204.733,293.064 209.263 C 292.494 210.072,291.085 211.364,289.931 212.134 C 288.778 212.904,287.552 214.028,287.208 214.631 C 286.254 216.302,285.254 217.301,283.236 218.599 C 281.842 219.496,281.291 220.114,280.959 221.152 C 280.718 221.904,280.037 223.443,279.445 224.571 C 278.315 226.723,278.324 226.553,279.112 230.958 C 279.576 233.553,281.139 235.801,285.457 240.087 C 290.844 245.433,291.064 247.363,286.506 249.289 L 284.718 250.045 194.817 250.045 L 104.915 250.045 99.342 249.013 C 94.343 248.088,93.581 247.849,91.939 246.690 C 90.932 245.979,88.891 244.545,87.403 243.503 C 85.914 242.460,84.259 241.007,83.724 240.272 C 83.190 239.537,82.081 238.332,81.261 237.593 C 80.073 236.523,79.542 235.617,78.651 233.138 C 78.036 231.427,76.999 229.216,76.345 228.224 C 74.939 226.090,74.077 222.654,73.771 217.965 C 73.498 213.779,72.178 209.734,70.593 208.222 C 67.041 204.834,57.721 203.065,49.193 204.160 M62.095 206.255 C 69.549 207.223,71.882 210.256,72.548 219.840 C 72.999 226.325,73.570 228.352,75.491 230.272 C 76.515 231.296,77.138 232.355,77.585 233.831 C 78.715 237.564,81.599 241.155,86.308 244.695 C 87.084 245.278,88.289 246.275,88.986 246.909 C 90.823 248.583,97.018 250.416,103.664 251.253 C 108.450 251.856,287.972 251.874,289.284 251.271 C 290.717 250.613,292.571 246.758,292.257 245.086 C 292.037 243.912,289.678 241.287,288.844 241.287 C 288.656 241.287,287.611 240.170,286.523 238.806 C 285.434 237.441,284.045 236.034,283.435 235.678 C 280.850 234.169,279.621 228.442,281.092 224.754 C 281.583 223.525,282.095 222.071,282.232 221.521 C 282.409 220.808,282.953 220.282,284.136 219.678 C 286.036 218.708,287.455 217.278,288.069 215.715 C 288.369 214.952,289.135 214.278,290.649 213.445 C 292.206 212.590,293.120 211.774,293.944 210.504 C 296.789 206.123,302.574 206.549,307.716 211.517 C 309.300 213.047,310.966 214.645,311.419 215.068 C 312.836 216.391,324.979 228.562,325.597 229.278 C 325.920 229.652,334.991 238.788,345.755 249.581 C 356.519 260.373,365.326 269.279,365.326 269.372 C 365.326 269.465,364.955 270.141,364.501 270.874 C 364.048 271.607,363.399 272.949,363.061 273.856 C 362.564 275.186,362.168 275.629,361.008 276.152 C 359.489 276.837,357.833 278.496,356.936 280.231 C 356.639 280.805,355.454 281.856,354.303 282.567 C 352.811 283.487,351.992 284.290,351.453 285.361 C 350.704 286.848,349.391 288.089,347.233 289.349 C 346.621 289.706,345.830 290.500,345.476 291.112 C 344.356 293.046,343.123 294.347,341.712 295.085 C 340.818 295.552,339.848 296.568,338.912 298.018 C 337.842 299.677,337.053 300.453,335.786 301.097 C 334.428 301.787,333.837 302.408,332.817 304.212 C 331.877 305.876,331.264 306.554,330.473 306.806 C 328.974 307.284,327.167 309.095,326.680 310.609 C 326.130 312.320,325.791 312.691,324.524 312.969 C 322.967 313.311,321.202 315.018,320.638 316.728 C 320.220 317.995,319.885 318.329,318.341 319.021 C 316.355 319.912,315.147 321.056,314.744 322.431 C 314.457 323.409,313.556 324.576,313.087 324.576 C 312.047 324.576,309.222 326.870,308.721 328.122 C 306.577 333.481,295.713 334.016,292.770 328.907 C 292.215 327.943,291.111 326.838,289.902 326.036 C 288.821 325.320,287.615 324.193,287.221 323.534 C 286.347 322.069,285.219 320.943,283.124 319.445 C 279.566 316.901,279.657 307.032,283.261 304.536 C 286.093 302.575,286.720 301.962,287.576 300.319 C 288.052 299.406,288.973 298.274,289.622 297.803 C 292.783 295.510,293.479 293.246,291.660 291.174 C 289.696 288.938,295.898 289.081,195.710 288.964 C 92.257 288.843,94.703 288.908,89.809 286.174 C 87.987 285.156,84.699 283.853,83.364 283.621 C 77.806 282.652,75.227 281.635,73.687 279.805 C 73.163 279.182,71.146 277.954,68.776 276.815 C 65.613 275.294,64.593 274.620,63.999 273.658 C 63.297 272.523,61.686 271.277,59.038 269.823 C 58.426 269.487,57.587 268.508,57.115 267.580 C 56.556 266.479,55.636 265.488,54.339 264.589 C 52.749 263.486,52.160 262.765,51.068 260.577 C 50.335 259.109,48.756 256.791,47.559 255.424 C 46.194 253.865,45.240 252.400,44.998 251.492 C 44.054 247.944,43.058 245.663,41.496 243.469 C 39.362 240.470,39.438 240.704,38.784 235.113 C 38.105 229.310,37.318 225.841,36.485 224.968 C 36.137 224.605,35.350 223.867,34.735 223.329 C 32.407 221.290,32.744 219.251,36.099 215.070 C 37.681 213.098,38.763 211.362,39.074 210.297 C 40.088 206.817,51.288 204.851,62.095 206.255 " stroke="none" fill="#ab3434" fill-rule="evenodd"></path><path id="path3" d="M99.487 30.057 C 99.274 30.270,98.076 30.811,96.824 31.259 C 94.825 31.974,94.440 32.268,93.655 33.681 C 92.387 35.963,91.951 36.407,90.018 37.387 C 88.702 38.053,88.100 38.652,87.442 39.950 C 86.452 41.902,85.817 42.530,83.809 43.539 C 82.782 44.054,82.078 44.788,81.381 46.068 C 80.347 47.969,79.319 48.960,77.673 49.647 C 77.078 49.895,76.144 50.920,75.356 52.190 C 74.441 53.664,73.451 54.691,72.127 55.538 C 70.904 56.320,69.811 57.413,69.087 58.577 C 68.350 59.764,67.269 60.835,65.974 61.663 C 64.700 62.478,63.740 63.424,63.289 64.308 C 62.513 65.828,60.982 67.255,59.232 68.088 C 58.508 68.433,57.760 69.256,57.194 70.331 C 56.538 71.577,55.712 72.409,54.088 73.458 C 52.563 74.444,51.688 75.299,51.272 76.209 C 50.559 77.770,49.733 78.568,47.506 79.847 C 46.356 80.508,45.665 81.227,45.210 82.237 C 44.468 83.882,42.863 85.422,41.148 86.132 C 39.703 86.730,36.952 92.029,37.383 93.385 C 37.520 93.817,44.969 101.528,53.936 110.521 C 62.904 119.514,70.841 127.481,71.575 128.226 C 72.308 128.971,73.595 130.253,74.435 131.076 C 75.274 131.899,76.545 133.186,77.260 133.936 C 77.975 134.686,79.021 135.708,79.584 136.208 C 80.147 136.708,81.254 137.834,82.043 138.711 C 82.832 139.587,84.360 141.124,85.439 142.127 C 86.517 143.130,87.730 144.336,88.134 144.808 C 89.595 146.514,95.834 152.282,97.746 153.694 C 100.682 155.863,104.549 155.593,106.994 153.050 C 110.102 149.817,110.775 149.197,111.904 148.525 C 112.565 148.132,113.676 146.973,114.373 145.949 C 115.142 144.818,116.419 143.591,117.629 142.820 C 122.470 139.736,123.011 130.399,118.561 126.752 C 117.663 126.016,116.612 124.879,116.226 124.224 C 115.840 123.569,114.665 122.370,113.615 121.559 C 110.705 119.310,109.741 118.277,109.741 117.408 C 109.741 115.789,110.988 112.807,112.151 111.644 L 113.339 110.456 204.571 110.456 C 295.603 110.456,295.808 110.457,298.303 111.191 C 301.243 112.056,301.287 112.065,305.451 112.736 C 309.621 113.408,311.610 114.218,313.653 116.080 C 314.567 116.913,315.991 118.072,316.817 118.656 C 318.336 119.730,320.818 122.187,322.512 124.295 C 323.020 124.927,323.867 126.739,324.394 128.320 C 324.973 130.058,325.618 131.339,326.025 131.556 C 328.023 132.626,329.085 136.217,329.563 143.521 C 330.277 154.436,334.484 157.105,349.955 156.457 C 358.206 156.111,361.939 154.783,363.008 151.811 C 363.365 150.817,364.482 149.028,365.489 147.835 C 368.352 144.443,368.543 144.080,368.543 142.022 C 368.543 140.339,368.430 140.063,367.436 139.332 C 365.122 137.628,364.088 134.496,363.165 126.394 C 362.677 122.107,362.672 122.092,360.217 118.419 C 359.003 116.602,358.085 114.760,357.812 113.593 C 357.033 110.259,356.064 108.568,353.051 105.276 C 352.689 104.881,351.860 103.512,351.208 102.234 C 350.025 99.914,348.880 98.602,346.986 97.400 C 346.434 97.050,345.674 96.184,345.297 95.477 C 344.301 93.608,343.047 92.336,341.610 91.735 C 340.916 91.445,339.413 90.248,338.270 89.075 C 336.634 87.396,335.392 86.558,332.416 85.128 C 329.651 83.799,328.244 82.878,327.164 81.692 C 326.353 80.801,325.399 80.073,325.043 80.075 C 322.863 80.085,315.836 78.027,312.422 76.378 C 306.934 73.728,313.922 73.911,209.473 73.675 L 113.852 73.458 112.366 72.664 C 108.326 70.504,108.371 67.934,112.506 64.744 C 113.367 64.080,114.311 62.918,114.695 62.049 C 115.510 60.207,116.579 59.151,118.538 58.253 C 119.822 57.664,120.061 57.364,120.437 55.867 C 120.674 54.926,121.041 53.560,121.253 52.833 C 122.133 49.822,120.748 43.915,118.938 42.955 C 117.594 42.243,116.418 41.073,114.792 38.833 C 114.130 37.921,112.957 36.819,112.186 36.386 C 111.389 35.938,110.242 34.782,109.528 33.705 C 108.123 31.588,107.290 31.052,104.133 30.234 C 101.584 29.574,100.030 29.515,99.487 30.057 M104.200 31.281 C 106.845 31.706,107.454 32.119,108.455 34.162 C 109.263 35.813,109.702 36.254,111.395 37.110 C 113.082 37.962,113.558 38.437,114.512 40.220 C 115.426 41.925,115.961 42.482,117.341 43.164 C 119.557 44.259,119.999 45.023,120.283 48.257 C 120.775 53.842,119.784 56.732,116.957 57.952 C 115.054 58.773,114.612 59.205,114.035 60.799 C 113.449 62.421,112.636 63.407,111.327 64.084 C 107.550 66.037,107.254 71.181,110.791 73.381 L 112.064 74.173 208.579 74.352 L 305.094 74.531 307.973 76.211 C 311.184 78.084,314.134 78.997,320.460 80.074 L 324.745 80.803 326.716 82.903 C 328.108 84.387,329.053 85.078,329.937 85.259 C 331.986 85.680,335.850 88.241,337.502 90.275 C 337.828 90.677,338.673 91.317,339.378 91.697 C 340.084 92.077,340.661 92.493,340.661 92.621 C 340.661 92.749,341.150 93.056,341.747 93.303 C 342.382 93.566,343.356 94.542,344.095 95.654 C 345.239 97.379,346.984 99.190,348.252 99.970 C 348.518 100.134,349.672 101.920,350.817 103.939 C 351.962 105.958,353.242 107.889,353.661 108.230 C 355.629 109.830,356.636 111.429,356.859 113.310 C 357.217 116.339,358.532 119.302,360.461 121.428 L 362.209 123.355 362.688 128.791 C 363.400 136.864,363.985 138.744,366.212 140.120 C 367.827 141.119,368.223 142.463,367.127 143.230 C 365.894 144.094,362.513 149.551,362.479 150.732 C 362.375 154.324,352.581 156.328,340.713 155.186 C 336.189 154.751,336.188 154.751,332.315 150.601 L 330.582 148.744 330.273 142.398 C 329.849 133.713,329.472 132.380,326.778 130.065 C 325.878 129.292,325.286 128.420,325.113 127.614 C 324.682 125.610,322.564 121.709,321.403 120.781 C 320.816 120.312,319.745 119.526,319.023 119.035 C 317.591 118.059,317.212 117.695,315.666 115.808 C 314.207 114.028,312.041 113.071,308.000 112.420 C 305.652 112.042,304.067 111.577,303.188 111.006 C 302.467 110.539,300.751 109.781,299.374 109.323 L 296.872 108.490 205.183 108.395 C 137.290 108.325,113.239 108.406,112.510 108.707 C 110.666 109.468,109.562 111.178,108.883 114.322 C 107.940 118.686,108.532 119.956,112.491 122.068 C 113.890 122.814,114.477 123.384,114.876 124.381 C 115.424 125.749,117.065 127.365,118.927 128.370 C 121.881 129.964,120.638 139.742,117.248 141.577 C 115.496 142.525,114.728 143.262,113.418 145.254 C 112.710 146.330,111.451 147.524,110.096 148.404 C 108.896 149.184,107.481 150.442,106.951 151.199 C 104.662 154.472,100.896 154.896,98.020 152.205 C 97.084 151.330,95.840 150.305,95.255 149.929 C 94.670 149.552,93.870 148.841,93.478 148.349 C 92.716 147.392,90.143 144.824,88.438 143.320 C 87.867 142.816,86.489 141.449,85.375 140.282 C 84.262 139.114,82.975 137.824,82.516 137.416 C 82.056 137.007,80.706 135.639,79.516 134.377 C 78.326 133.115,76.587 131.328,75.652 130.406 C 74.716 129.484,73.423 128.197,72.776 127.546 C 72.130 126.895,70.893 125.720,70.027 124.935 C 69.162 124.149,68.132 122.993,67.739 122.366 C 67.346 121.738,66.372 120.754,65.576 120.179 C 64.779 119.604,63.653 118.602,63.073 117.953 C 62.494 117.304,61.055 115.852,59.875 114.727 C 58.695 113.601,57.489 112.402,57.194 112.061 C 56.899 111.720,55.532 110.344,54.155 109.001 C 51.045 105.967,51.046 105.969,49.418 104.052 C 48.682 103.184,47.460 102.024,46.703 101.474 C 45.946 100.924,44.816 99.755,44.192 98.876 C 43.071 97.300,40.603 95.085,39.968 95.085 C 39.789 95.085,39.403 94.514,39.111 93.815 C 38.183 91.593,39.463 88.855,42.342 86.902 C 43.645 86.019,45.075 84.661,45.713 83.703 C 47.449 81.095,47.710 80.829,49.113 80.243 C 50.274 79.758,53.262 76.032,53.262 75.069 C 53.262 74.934,53.912 74.609,54.707 74.347 C 56.160 73.867,58.237 71.562,58.767 69.839 C 58.911 69.373,59.598 68.852,60.546 68.490 C 62.429 67.771,63.365 66.817,64.330 64.634 C 64.891 63.367,65.307 62.915,66.071 62.748 C 67.637 62.404,69.584 60.573,70.256 58.813 C 70.735 57.559,71.116 57.138,72.050 56.829 C 73.659 56.299,76.011 53.944,76.315 52.561 C 76.485 51.789,76.863 51.319,77.513 51.076 C 79.432 50.357,81.075 48.910,81.867 47.242 C 82.505 45.897,83.122 45.282,84.915 44.204 C 86.647 43.162,87.328 42.499,87.887 41.310 C 88.437 40.141,89.214 39.372,91.106 38.125 C 92.536 37.183,93.705 36.134,93.845 35.667 C 94.315 34.104,96.520 32.234,98.628 31.612 C 99.727 31.287,100.786 30.968,100.983 30.903 C 101.180 30.837,101.662 30.843,102.055 30.917 C 102.449 30.990,103.414 31.154,104.200 31.281 M47.185 206.268 C 42.700 206.897,39.619 208.427,39.074 210.297 C 38.763 211.362,37.681 213.098,36.099 215.070 C 32.744 219.251,32.407 221.290,34.735 223.329 C 35.350 223.867,36.137 224.605,36.485 224.968 C 37.318 225.841,38.105 229.310,38.784 235.113 C 39.438 240.704,39.362 240.470,41.496 243.469 C 43.058 245.663,44.054 247.944,44.998 251.492 C 45.240 252.400,46.194 253.865,47.559 255.424 C 48.756 256.791,50.335 259.109,51.068 260.577 C 52.160 262.765,52.749 263.486,54.339 264.589 C 55.636 265.488,56.556 266.479,57.115 267.580 C 57.587 268.508,58.426 269.487,59.038 269.823 C 61.686 271.277,63.297 272.523,63.999 273.658 C 64.593 274.620,65.613 275.294,68.776 276.815 C 71.146 277.954,73.163 279.182,73.687 279.805 C 75.227 281.635,77.806 282.652,83.364 283.621 C 84.699 283.853,87.987 285.156,89.809 286.174 C 94.703 288.908,92.257 288.843,195.710 288.964 C 295.898 289.081,289.696 288.938,291.660 291.174 C 293.479 293.246,292.783 295.510,289.622 297.803 C 288.973 298.274,288.052 299.406,287.576 300.319 C 286.720 301.962,286.093 302.575,283.261 304.536 C 279.657 307.032,279.566 316.901,283.124 319.445 C 285.219 320.943,286.347 322.069,287.221 323.534 C 287.615 324.193,288.821 325.320,289.902 326.036 C 291.111 326.838,292.215 327.943,292.770 328.907 C 295.713 334.016,306.577 333.481,308.721 328.122 C 309.222 326.870,312.047 324.576,313.087 324.576 C 313.556 324.576,314.457 323.409,314.744 322.431 C 315.147 321.056,316.355 319.912,318.341 319.021 C 319.885 318.329,320.220 317.995,320.638 316.728 C 321.202 315.018,322.967 313.311,324.524 312.969 C 325.791 312.691,326.130 312.320,326.680 310.609 C 327.167 309.095,328.974 307.284,330.473 306.806 C 331.264 306.554,331.877 305.876,332.817 304.212 C 333.837 302.408,334.428 301.787,335.786 301.097 C 337.053 300.453,337.842 299.677,338.912 298.018 C 339.848 296.568,340.818 295.552,341.712 295.085 C 343.123 294.347,344.356 293.046,345.476 291.112 C 345.830 290.500,346.621 289.706,347.233 289.349 C 349.391 288.089,350.704 286.848,351.453 285.361 C 351.992 284.290,352.811 283.487,354.303 282.567 C 355.454 281.856,356.639 280.805,356.936 280.231 C 357.833 278.496,359.489 276.837,361.008 276.152 C 362.168 275.629,362.564 275.186,363.061 273.856 C 363.399 272.949,364.048 271.607,364.501 270.874 C 364.955 270.141,365.326 269.465,365.326 269.372 C 365.326 269.279,356.519 260.373,345.755 249.581 C 334.991 238.788,325.920 229.652,325.597 229.278 C 324.979 228.562,312.836 216.391,311.419 215.068 C 310.966 214.645,309.300 213.047,307.716 211.517 C 302.574 206.549,296.789 206.123,293.944 210.504 C 293.120 211.774,292.206 212.590,290.649 213.445 C 289.135 214.278,288.369 214.952,288.069 215.715 C 287.455 217.278,286.036 218.708,284.136 219.678 C 282.953 220.282,282.409 220.808,282.232 221.521 C 282.095 222.071,281.583 223.525,281.092 224.754 C 279.621 228.442,280.850 234.169,283.435 235.678 C 284.045 236.034,285.434 237.441,286.523 238.806 C 287.611 240.170,288.656 241.287,288.844 241.287 C 289.678 241.287,292.037 243.912,292.257 245.086 C 292.571 246.758,290.717 250.613,289.284 251.271 C 287.972 251.874,108.450 251.856,103.664 251.253 C 97.018 250.416,90.823 248.583,88.986 246.909 C 88.289 246.275,87.084 245.278,86.308 244.695 C 81.599 241.155,78.715 237.564,77.585 233.831 C 77.138 232.355,76.515 231.296,75.491 230.272 C 73.570 228.352,72.999 226.325,72.548 219.840 C 71.989 211.792,71.153 209.951,67.099 207.849 C 63.605 206.036,54.173 205.287,47.185 206.268 M62.307 207.336 C 65.421 207.787,66.553 208.423,69.159 211.191 L 71.282 213.445 71.705 220.127 C 72.238 228.560,72.471 229.427,74.882 231.961 C 76.200 233.345,76.914 234.453,77.209 235.567 C 77.995 238.539,79.671 241.198,81.462 242.315 C 82.368 242.881,84.155 244.415,85.433 245.724 C 88.224 248.582,89.262 249.081,95.453 250.543 C 98.082 251.164,100.482 251.894,100.787 252.164 C 102.949 254.084,97.113 253.968,196.604 254.075 C 298.575 254.185,290.098 254.396,291.873 251.706 C 294.656 247.490,294.075 243.010,290.478 240.953 C 288.589 239.872,287.637 238.834,286.812 236.955 C 286.581 236.429,285.552 235.534,284.460 234.909 C 279.922 232.313,280.736 222.536,285.701 219.985 C 286.983 219.326,287.760 218.550,288.875 216.813 C 289.929 215.171,290.627 214.453,291.316 214.302 C 292.346 214.076,295.415 211.184,296.114 209.783 C 297.155 207.695,301.842 207.880,304.107 210.098 C 305.060 211.032,306.670 212.482,307.684 213.320 C 308.698 214.159,309.794 215.296,310.120 215.847 C 310.445 216.399,311.517 217.399,312.501 218.070 C 313.485 218.742,314.745 219.952,315.301 220.761 C 316.275 222.177,317.766 223.590,319.732 224.958 C 320.246 225.316,321.058 226.230,321.537 226.989 C 322.519 228.544,324.193 230.206,324.778 230.206 C 325.183 230.206,326.315 231.484,328.162 234.024 C 328.760 234.846,329.685 235.716,330.219 235.957 C 330.752 236.197,331.912 237.272,332.797 238.346 C 334.742 240.707,335.436 241.407,337.627 243.226 C 338.556 243.997,339.741 245.213,340.259 245.928 C 340.777 246.643,342.354 248.221,343.765 249.435 C 345.175 250.649,346.426 251.947,346.544 252.320 C 346.663 252.693,347.956 253.980,349.418 255.180 C 350.880 256.380,352.313 257.819,352.601 258.377 C 352.890 258.936,354.253 260.249,355.631 261.296 C 357.031 262.361,358.329 263.668,358.574 264.260 C 358.816 264.843,359.602 265.747,360.322 266.268 C 361.042 266.790,362.133 267.639,362.748 268.156 L 363.865 269.097 363.121 271.009 C 361.884 274.187,361.540 274.680,360.044 275.424 C 358.107 276.388,357.237 277.228,356.120 279.215 C 355.451 280.405,354.732 281.107,353.636 281.639 C 352.563 282.161,351.549 283.135,350.306 284.838 C 349.323 286.185,348.129 287.465,347.653 287.682 C 346.291 288.303,344.959 289.593,344.004 291.217 C 343.516 292.047,342.369 293.197,341.426 293.802 C 339.454 295.067,338.557 296.015,337.647 297.791 C 337.235 298.595,336.356 299.426,335.270 300.036 C 333.334 301.125,332.302 302.274,331.745 303.962 C 331.456 304.834,330.849 305.393,329.200 306.299 C 327.404 307.286,326.907 307.775,326.294 309.152 C 325.888 310.066,325.439 311.052,325.298 311.344 C 325.156 311.637,324.485 312.007,323.807 312.167 C 321.974 312.601,320.703 313.816,319.995 315.812 C 319.418 317.436,319.206 317.652,317.598 318.249 C 315.363 319.079,314.958 319.423,314.151 321.180 C 313.242 323.160,312.822 323.597,311.101 324.360 C 309.335 325.142,308.478 325.999,307.428 328.035 C 306.835 329.184,306.312 329.653,305.161 330.070 C 304.337 330.367,302.983 330.860,302.152 331.164 C 299.674 332.069,293.836 330.464,293.832 328.877 C 293.829 327.654,292.430 326.102,290.461 325.139 C 288.671 324.263,288.330 323.918,287.581 322.223 C 286.821 320.507,286.508 320.195,284.652 319.315 C 283.509 318.773,282.507 318.288,282.426 318.237 C 281.793 317.839,281.423 311.836,281.876 309.297 C 282.148 307.772,282.376 306.363,282.384 306.166 C 282.391 305.970,283.161 305.504,284.094 305.131 C 286.211 304.286,287.654 302.980,287.948 301.643 C 288.080 301.040,288.774 300.140,289.632 299.459 C 294.121 295.899,295.097 292.869,292.656 290.075 C 290.465 287.567,298.830 287.766,195.419 287.759 C 95.168 287.752,95.673 287.761,93.356 285.939 C 91.820 284.730,89.443 283.864,85.127 282.940 C 77.146 281.230,76.336 281.018,76.197 280.601 C 75.892 279.687,73.935 277.811,72.835 277.379 C 72.195 277.127,70.822 276.544,69.784 276.084 C 68.746 275.623,67.772 275.246,67.620 275.246 C 67.468 275.246,66.303 274.145,65.031 272.799 C 63.229 270.893,62.310 270.217,60.867 269.738 C 59.578 269.310,58.943 268.885,58.779 268.341 C 58.229 266.514,56.619 264.501,55.155 263.812 C 54.028 263.281,53.438 262.679,52.793 261.400 C 50.453 256.763,49.479 255.257,47.703 253.539 C 46.636 252.506,45.680 251.228,45.565 250.679 C 44.509 245.636,43.258 242.002,42.580 242.002 C 40.989 242.002,39.763 238.543,39.179 232.407 C 38.477 225.041,38.218 224.311,35.601 222.335 C 33.187 220.512,33.191 220.559,35.264 218.628 C 36.473 217.503,37.474 215.972,38.929 213.024 C 41.165 208.496,40.825 208.750,46.291 207.513 C 48.850 206.934,58.766 206.824,62.307 207.336 " stroke="none" fill="#bf3734" fill-rule="evenodd"></path><path id="path4" d="M100.983 30.903 C 100.786 30.968,99.727 31.287,98.628 31.612 C 96.520 32.234,94.315 34.104,93.845 35.667 C 93.705 36.134,92.536 37.183,91.106 38.125 C 89.214 39.372,88.437 40.141,87.887 41.310 C 87.328 42.499,86.647 43.162,84.915 44.204 C 83.122 45.282,82.505 45.897,81.867 47.242 C 81.075 48.910,79.432 50.357,77.513 51.076 C 76.863 51.319,76.485 51.789,76.315 52.561 C 76.011 53.944,73.659 56.299,72.050 56.829 C 71.116 57.138,70.735 57.559,70.256 58.813 C 69.584 60.573,67.637 62.404,66.071 62.748 C 65.307 62.915,64.891 63.367,64.330 64.634 C 63.365 66.817,62.429 67.771,60.546 68.490 C 59.598 68.852,58.911 69.373,58.767 69.839 C 58.237 71.562,56.160 73.867,54.707 74.347 C 53.912 74.609,53.262 74.934,53.262 75.069 C 53.262 76.032,50.274 79.758,49.113 80.243 C 47.710 80.829,47.449 81.095,45.713 83.703 C 45.075 84.661,43.645 86.019,42.342 86.902 C 39.463 88.855,38.183 91.593,39.111 93.815 C 39.403 94.514,39.789 95.085,39.968 95.085 C 40.603 95.085,43.071 97.300,44.192 98.876 C 44.816 99.755,45.946 100.924,46.703 101.474 C 47.460 102.024,48.682 103.184,49.418 104.052 C 51.046 105.969,51.045 105.967,54.155 109.001 C 55.532 110.344,56.899 111.720,57.194 112.061 C 57.489 112.402,58.695 113.601,59.875 114.727 C 61.055 115.852,62.494 117.304,63.073 117.953 C 63.653 118.602,64.779 119.604,65.576 120.179 C 66.372 120.754,67.346 121.738,67.739 122.366 C 68.132 122.993,69.162 124.149,70.027 124.935 C 70.893 125.720,72.130 126.895,72.776 127.546 C 73.423 128.197,74.716 129.484,75.652 130.406 C 76.587 131.328,78.326 133.115,79.516 134.377 C 80.706 135.639,82.056 137.007,82.516 137.416 C 82.975 137.824,84.262 139.114,85.375 140.282 C 86.489 141.449,87.867 142.816,88.438 143.320 C 90.143 144.824,92.716 147.392,93.478 148.349 C 93.870 148.841,94.670 149.552,95.255 149.929 C 95.840 150.305,97.084 151.330,98.020 152.205 C 100.896 154.896,104.662 154.472,106.951 151.199 C 107.481 150.442,108.896 149.184,110.096 148.404 C 111.451 147.524,112.710 146.330,113.418 145.254 C 114.728 143.262,115.496 142.525,117.248 141.577 C 120.638 139.742,121.881 129.964,118.927 128.370 C 117.065 127.365,115.424 125.749,114.876 124.381 C 114.477 123.384,113.890 122.814,112.491 122.068 C 108.532 119.956,107.940 118.686,108.883 114.322 C 109.562 111.178,110.666 109.468,112.510 108.707 C 113.239 108.406,137.290 108.325,205.183 108.395 L 296.872 108.490 299.374 109.323 C 300.751 109.781,302.467 110.539,303.188 111.006 C 304.067 111.577,305.652 112.042,308.000 112.420 C 312.041 113.071,314.207 114.028,315.666 115.808 C 317.212 117.695,317.591 118.059,319.023 119.035 C 319.745 119.526,320.816 120.312,321.403 120.781 C 322.564 121.709,324.682 125.610,325.113 127.614 C 325.286 128.420,325.878 129.292,326.778 130.065 C 329.472 132.380,329.849 133.713,330.273 142.398 L 330.582 148.744 332.315 150.601 C 336.188 154.751,336.189 154.751,340.713 155.186 C 352.581 156.328,362.375 154.324,362.479 150.732 C 362.513 149.551,365.894 144.094,367.127 143.230 C 368.223 142.463,367.827 141.119,366.212 140.120 C 363.985 138.744,363.400 136.864,362.688 128.791 L 362.209 123.355 360.461 121.428 C 358.532 119.302,357.217 116.339,356.859 113.310 C 356.636 111.429,355.629 109.830,353.661 108.230 C 353.242 107.889,351.962 105.958,350.817 103.939 C 349.672 101.920,348.518 100.134,348.252 99.970 C 346.984 99.190,345.239 97.379,344.095 95.654 C 343.356 94.542,342.382 93.566,341.747 93.303 C 341.150 93.056,340.661 92.749,340.661 92.621 C 340.661 92.493,340.084 92.077,339.378 91.697 C 338.673 91.317,337.828 90.677,337.502 90.275 C 335.850 88.241,331.986 85.680,329.937 85.259 C 329.053 85.078,328.108 84.387,326.716 82.903 L 324.745 80.803 320.460 80.074 C 314.134 78.997,311.184 78.084,307.973 76.211 L 305.094 74.531 208.579 74.352 L 112.064 74.173 110.791 73.381 C 108.774 72.127,107.860 69.819,108.510 67.621 C 109.033 65.851,109.821 64.863,111.327 64.084 C 112.636 63.407,113.449 62.421,114.035 60.799 C 114.612 59.205,115.054 58.773,116.957 57.952 C 119.784 56.732,120.775 53.842,120.283 48.257 C 119.999 45.023,119.557 44.259,117.341 43.164 C 115.961 42.482,115.426 41.925,114.512 40.220 C 113.558 38.437,113.082 37.962,111.395 37.110 C 109.702 36.254,109.263 35.813,108.455 34.162 C 107.454 32.119,106.845 31.706,104.200 31.281 C 103.414 31.154,102.449 30.990,102.055 30.917 C 101.662 30.843,101.180 30.837,100.983 30.903 M105.317 32.546 C 105.817 32.736,106.569 33.705,107.225 35.004 C 108.182 36.899,108.545 37.263,110.364 38.145 C 112.130 39.001,112.550 39.405,113.329 41.001 C 114.195 42.777,115.266 43.757,117.734 45.033 C 120.544 46.484,119.820 54.736,116.753 56.214 C 115.182 56.971,112.330 59.571,112.036 60.513 C 111.900 60.949,111.670 61.385,111.525 61.483 C 106.021 65.206,104.878 72.440,109.459 74.565 C 110.105 74.865,111.037 75.339,111.528 75.619 C 112.731 76.305,113.739 76.269,117.093 75.421 C 120.459 74.570,288.511 74.511,294.191 75.359 C 295.666 75.579,297.865 75.911,299.079 76.097 C 300.293 76.283,301.986 76.845,302.842 77.347 C 305.099 78.669,310.529 79.979,315.460 80.389 C 320.230 80.786,322.659 81.754,325.155 84.250 C 326.488 85.582,328.344 86.506,329.690 86.506 C 330.798 86.506,333.002 88.203,333.545 89.475 C 333.819 90.117,334.630 90.810,335.798 91.401 C 339.061 93.050,343.994 97.692,346.236 101.223 C 346.694 101.944,347.398 102.639,347.801 102.767 C 348.204 102.895,348.769 103.456,349.057 104.013 C 349.345 104.570,349.792 105.242,350.049 105.507 C 350.307 105.771,350.716 106.663,350.960 107.488 C 351.385 108.928,352.796 110.456,353.701 110.456 C 354.827 110.456,355.461 112.193,356.768 118.856 C 357.221 121.167,358.155 122.798,359.218 123.136 C 360.456 123.529,361.977 128.916,362.384 134.351 C 362.679 138.291,362.872 139.300,363.497 140.145 C 364.271 141.191,364.505 142.787,363.937 143.138 C 363.763 143.246,363.328 144.415,362.970 145.736 C 362.428 147.741,362.006 148.460,360.427 150.078 C 359.386 151.144,358.534 152.136,358.534 152.282 C 358.534 154.153,342.282 155.216,338.137 153.615 C 336.829 153.111,336.381 152.702,335.873 151.552 C 335.449 150.592,334.808 149.897,333.930 149.447 C 331.299 148.100,331.121 147.538,330.920 139.932 C 330.688 131.200,329.692 128.079,326.473 126.005 C 325.586 125.434,325.215 124.784,324.622 122.763 C 323.765 119.845,323.079 119.089,320.750 118.497 C 319.825 118.263,318.966 117.845,318.841 117.570 C 316.799 113.060,316.312 112.720,310.777 111.953 C 307.818 111.543,305.712 110.562,304.181 108.879 C 302.081 106.572,308.976 106.731,205.937 106.618 L 111.785 106.514 110.271 107.402 C 105.301 110.315,105.855 122.609,110.957 122.609 C 112.392 122.609,113.303 123.455,113.833 125.280 C 114.458 127.429,115.202 128.217,117.105 128.742 C 118.916 129.242,119.290 129.838,119.576 132.670 C 119.900 135.888,119.516 136.490,113.315 142.488 C 112.038 143.724,110.831 144.913,110.634 145.129 C 108.893 147.046,107.244 148.511,105.599 149.603 C 104.525 150.316,103.265 151.311,102.797 151.815 C 101.669 153.032,100.500 152.731,99.553 150.979 C 99.052 150.051,98.438 149.519,97.499 149.199 C 95.701 148.586,93.655 146.983,93.655 146.187 C 93.655 145.164,92.085 143.568,90.139 142.613 C 89.153 142.129,88.196 141.412,88.012 141.019 C 87.828 140.626,87.428 139.725,87.123 139.018 C 86.620 137.851,84.187 136.193,82.976 136.193 C 82.557 136.193,81.501 134.573,81.501 133.930 C 81.501 132.978,79.973 131.493,78.011 130.538 C 76.369 129.739,75.965 129.351,75.585 128.206 C 74.974 126.368,73.797 125.182,72.140 124.736 C 70.731 124.357,69.920 123.466,69.527 121.865 C 69.189 120.487,67.732 119.109,66.170 118.688 C 64.536 118.248,64.295 117.983,63.434 115.683 C 62.786 113.950,61.295 112.605,60.020 112.602 C 59.275 112.600,58.575 111.779,57.323 109.436 C 56.369 107.651,55.034 106.524,53.876 106.524 C 53.280 106.524,51.117 103.915,51.117 103.197 C 51.117 102.303,49.714 100.867,48.602 100.623 C 47.150 100.304,45.500 98.858,45.228 97.667 C 44.917 96.301,44.436 95.774,42.090 94.226 C 40.960 93.480,39.957 92.745,39.863 92.593 C 39.769 92.441,43.485 88.476,48.121 83.781 C 52.756 79.087,56.654 75.137,56.782 75.004 C 56.910 74.871,58.141 73.640,59.517 72.268 C 60.894 70.895,62.181 69.609,62.377 69.408 C 62.574 69.207,63.901 67.920,65.326 66.546 C 66.752 65.173,67.918 63.870,67.918 63.651 C 67.918 63.432,68.327 63.098,68.826 62.908 C 69.326 62.718,69.997 62.106,70.317 61.548 C 70.637 60.990,71.359 60.269,71.921 59.946 C 72.483 59.624,73.220 58.874,73.558 58.279 C 73.897 57.685,74.289 57.197,74.431 57.196 C 74.640 57.194,81.470 50.453,82.752 48.982 C 84.828 46.601,100.038 32.166,100.598 32.045 C 101.529 31.845,104.225 32.131,105.317 32.546 M46.291 207.513 C 40.825 208.750,41.165 208.496,38.929 213.024 C 37.474 215.972,36.473 217.503,35.264 218.628 C 33.191 220.559,33.187 220.512,35.601 222.335 C 38.218 224.311,38.477 225.041,39.179 232.407 C 39.763 238.543,40.989 242.002,42.580 242.002 C 43.258 242.002,44.509 245.636,45.565 250.679 C 45.680 251.228,46.636 252.506,47.703 253.539 C 49.479 255.257,50.453 256.763,52.793 261.400 C 53.438 262.679,54.028 263.281,55.155 263.812 C 56.619 264.501,58.229 266.514,58.779 268.341 C 58.943 268.885,59.578 269.310,60.867 269.738 C 62.310 270.217,63.229 270.893,65.031 272.799 C 66.303 274.145,67.468 275.246,67.620 275.246 C 67.772 275.246,68.746 275.623,69.784 276.084 C 70.822 276.544,72.195 277.127,72.835 277.379 C 73.935 277.811,75.892 279.687,76.197 280.601 C 76.336 281.018,77.146 281.230,85.127 282.940 C 89.443 283.864,91.820 284.730,93.356 285.939 C 95.673 287.761,95.168 287.752,195.419 287.759 C 298.830 287.766,290.465 287.567,292.656 290.075 C 295.097 292.869,294.121 295.899,289.632 299.459 C 288.774 300.140,288.080 301.040,287.948 301.643 C 287.654 302.980,286.211 304.286,284.094 305.131 C 283.161 305.504,282.391 305.970,282.384 306.166 C 282.376 306.363,282.148 307.772,281.876 309.297 C 281.423 311.836,281.793 317.839,282.426 318.237 C 282.507 318.288,283.509 318.773,284.652 319.315 C 286.508 320.195,286.821 320.507,287.581 322.223 C 288.330 323.918,288.671 324.263,290.461 325.139 C 292.430 326.102,293.829 327.654,293.832 328.877 C 293.836 330.464,299.674 332.069,302.152 331.164 C 302.983 330.860,304.337 330.367,305.161 330.070 C 306.312 329.653,306.835 329.184,307.428 328.035 C 308.478 325.999,309.335 325.142,311.101 324.360 C 312.822 323.597,313.242 323.160,314.151 321.180 C 314.958 319.423,315.363 319.079,317.598 318.249 C 319.206 317.652,319.418 317.436,319.995 315.812 C 320.703 313.816,321.974 312.601,323.807 312.167 C 324.485 312.007,325.156 311.637,325.298 311.344 C 325.439 311.052,325.888 310.066,326.294 309.152 C 326.907 307.775,327.404 307.286,329.200 306.299 C 330.849 305.393,331.456 304.834,331.745 303.962 C 332.302 302.274,333.334 301.125,335.270 300.036 C 336.356 299.426,337.235 298.595,337.647 297.791 C 338.557 296.015,339.454 295.067,341.426 293.802 C 342.369 293.197,343.516 292.047,344.004 291.217 C 344.959 289.593,346.291 288.303,347.653 287.682 C 348.129 287.465,349.323 286.185,350.306 284.838 C 351.549 283.135,352.563 282.161,353.636 281.639 C 354.732 281.107,355.451 280.405,356.120 279.215 C 357.237 277.228,358.107 276.388,360.044 275.424 C 361.540 274.680,361.884 274.187,363.121 271.009 L 363.865 269.097 362.748 268.156 C 362.133 267.639,361.042 266.790,360.322 266.268 C 359.602 265.747,358.816 264.843,358.574 264.260 C 358.329 263.668,357.031 262.361,355.631 261.296 C 354.253 260.249,352.890 258.936,352.601 258.377 C 352.313 257.819,350.880 256.380,349.418 255.180 C 347.956 253.980,346.663 252.693,346.544 252.320 C 346.426 251.947,345.175 250.649,343.765 249.435 C 342.354 248.221,340.777 246.643,340.259 245.928 C 339.741 245.213,338.556 243.997,337.627 243.226 C 335.436 241.407,334.742 240.707,332.797 238.346 C 331.912 237.272,330.752 236.197,330.219 235.957 C 329.685 235.716,328.760 234.846,328.162 234.024 C 326.315 231.484,325.183 230.206,324.778 230.206 C 324.193 230.206,322.519 228.544,321.537 226.989 C 321.058 226.230,320.246 225.316,319.732 224.958 C 317.766 223.590,316.275 222.177,315.301 220.761 C 314.745 219.952,313.485 218.742,312.501 218.070 C 311.517 217.399,310.445 216.399,310.120 215.847 C 309.794 215.296,308.698 214.159,307.684 213.320 C 306.670 212.482,305.060 211.032,304.107 210.098 C 301.842 207.880,297.155 207.695,296.114 209.783 C 295.415 211.184,292.346 214.076,291.316 214.302 C 290.627 214.453,289.929 215.171,288.875 216.813 C 287.760 218.550,286.983 219.326,285.701 219.985 C 280.736 222.536,279.922 232.313,284.460 234.909 C 285.552 235.534,286.581 236.429,286.812 236.955 C 287.637 238.834,288.589 239.872,290.478 240.953 C 294.075 243.010,294.656 247.490,291.873 251.706 C 290.098 254.396,298.575 254.185,196.604 254.075 C 97.113 253.968,102.949 254.084,100.787 252.164 C 100.482 251.894,98.082 251.164,95.453 250.543 C 89.262 249.081,88.224 248.582,85.433 245.724 C 84.155 244.415,82.368 242.881,81.462 242.315 C 79.671 241.198,77.995 238.539,77.209 235.567 C 76.914 234.453,76.200 233.345,74.882 231.961 C 72.471 229.427,72.238 228.560,71.705 220.127 L 71.282 213.445 69.159 211.191 C 66.553 208.423,65.421 207.787,62.307 207.336 C 58.766 206.824,48.850 206.934,46.291 207.513 M64.575 208.616 C 65.064 208.747,65.556 209.381,65.929 210.358 C 66.400 211.589,66.967 212.185,68.790 213.364 L 71.064 214.835 71.212 222.431 C 71.389 231.466,71.810 233.098,74.603 235.556 C 75.503 236.349,76.359 236.997,76.504 236.997 C 76.649 236.997,77.040 238.083,77.373 239.410 C 78.148 242.496,79.690 244.147,81.800 244.147 C 82.516 244.147,83.273 245.090,84.525 247.542 C 85.448 249.351,87.830 250.374,92.422 250.933 C 96.533 251.433,96.591 251.455,97.250 252.796 C 99.051 256.461,93.995 256.285,197.927 256.293 C 291.693 256.301,290.126 256.326,292.472 254.745 C 296.154 252.265,296.074 241.710,292.363 240.210 C 289.899 239.213,288.489 238.031,288.117 236.650 C 287.685 235.047,287.123 234.522,284.450 233.229 L 282.395 232.234 282.395 229.325 L 282.395 226.416 284.020 224.825 C 284.914 223.951,286.122 222.560,286.705 221.734 C 287.289 220.909,288.807 219.463,290.080 218.521 C 291.382 217.557,292.540 216.389,292.728 215.850 C 292.938 215.246,293.899 214.362,295.324 213.460 C 298.619 211.375,299.527 210.594,299.767 209.639 C 300.056 208.489,301.429 209.331,302.415 211.263 C 302.854 212.125,303.503 212.742,304.271 213.030 C 306.975 214.043,307.917 214.757,308.296 216.081 C 308.803 217.854,309.972 218.966,312.057 219.658 C 313.673 220.195,313.853 220.373,314.381 221.963 C 315.071 224.040,315.886 224.842,318.060 225.582 C 319.546 226.087,319.758 226.305,320.276 227.851 C 321.037 230.128,322.038 231.176,323.935 231.683 C 325.329 232.056,325.581 232.288,326.176 233.746 C 327.248 236.378,327.769 236.960,329.644 237.623 C 331.273 238.198,331.499 238.427,332.481 240.483 C 333.497 242.609,334.784 243.789,336.087 243.789 C 336.835 243.789,338.366 245.638,338.859 247.136 C 339.152 248.026,339.692 248.724,340.380 249.102 C 343.215 250.657,344.533 251.724,344.760 252.646 C 345.178 254.345,345.945 255.144,348.248 256.280 C 350.308 257.296,350.535 257.525,351.028 259.077 C 351.527 260.652,351.735 260.855,354.052 262.021 C 356.119 263.062,356.577 263.455,356.761 264.345 C 357.180 266.378,360.082 268.811,362.087 268.811 C 363.109 268.811,361.038 271.675,357.821 274.710 C 356.779 275.693,355.186 277.294,354.281 278.269 C 353.377 279.244,352.001 280.611,351.224 281.308 C 350.447 282.004,349.161 283.280,348.364 284.142 C 346.865 285.768,334.136 298.427,333.623 298.804 C 333.463 298.921,332.785 299.660,332.116 300.447 C 331.447 301.233,330.618 302.038,330.274 302.234 C 329.930 302.431,328.641 303.798,327.410 305.273 C 326.179 306.747,324.733 308.222,324.197 308.551 C 323.661 308.879,322.923 309.578,322.558 310.103 C 322.193 310.629,321.187 311.728,320.322 312.545 C 318.508 314.258,316.437 316.348,314.776 318.141 C 314.139 318.829,312.922 319.873,312.072 320.462 C 311.222 321.050,310.312 322.043,310.050 322.670 C 309.788 323.296,309.290 323.902,308.943 324.016 C 308.136 324.281,304.429 327.770,303.896 328.765 C 303.377 329.735,301.135 330.224,298.188 330.011 L 295.946 329.849 294.927 327.602 C 293.827 325.178,292.973 324.429,290.888 324.064 C 289.817 323.876,289.504 323.636,289.318 322.862 C 288.612 319.922,287.200 318.491,284.531 318.009 C 282.508 317.644,281.627 312.358,283.087 309.337 C 283.467 308.550,283.883 307.489,284.011 306.981 C 284.186 306.280,284.541 306.000,285.471 305.825 C 287.049 305.529,289.124 303.704,289.931 301.902 C 290.338 300.991,290.980 300.292,291.739 299.932 C 295.827 297.994,296.419 289.767,292.641 287.407 C 292.119 287.081,271.491 286.992,204.196 287.026 C 155.927 287.051,113.147 286.959,109.131 286.822 L 101.829 286.573 99.842 285.377 C 98.749 284.719,96.387 283.783,94.593 283.298 C 91.416 282.439,89.830 282.168,83.042 281.319 L 79.758 280.908 77.472 278.656 C 75.059 276.279,74.992 276.243,71.754 275.601 C 69.905 275.235,69.623 275.057,69.019 273.879 C 68.113 272.112,67.074 271.226,64.522 270.042 C 63.342 269.495,62.310 268.874,62.229 268.663 C 62.147 268.451,60.900 267.098,59.458 265.656 C 58.016 264.214,56.836 262.864,56.836 262.656 C 56.836 262.448,55.805 261.261,54.544 260.019 C 52.838 258.338,52.054 257.232,51.479 255.694 C 50.544 253.195,50.255 252.823,48.761 252.199 C 47.109 251.509,46.864 250.977,45.716 245.576 C 44.788 241.217,44.628 240.834,43.101 239.329 C 40.978 237.236,39.678 233.245,39.678 228.818 C 39.678 227.041,39.440 224.887,39.128 223.835 C 38.625 222.142,38.365 221.829,36.534 220.706 C 36.476 220.670,36.904 220.167,37.484 219.586 C 38.488 218.582,39.315 216.533,39.319 215.036 C 39.320 214.656,40.366 213.329,41.644 212.088 C 42.922 210.848,43.968 209.666,43.968 209.462 C 43.968 208.550,61.624 207.825,64.575 208.616 " stroke="none" fill="#cc3c3b" fill-rule="evenodd"></path></g></svg>